<svg width="26" height="30" viewBox="0 0 26 30" fill="none" xmlns="http://www.w3.org/2000/svg">
<path d="M7.59998 1.5L9.62498 3.525" stroke="#C3B6BE" stroke-width="1.5" stroke-linecap="round" stroke-linejoin="round"/>
<path d="M18.4 1.5L16.375 3.525" stroke="#C3B6BE" stroke-width="1.5" stroke-linecap="round" stroke-linejoin="round"/>
<path fill-rule="evenodd" clip-rule="evenodd" d="M19.6 24.4512H6.40002C5.57202 24.4512 4.90002 23.7792 4.90002 22.9512V10.9512H21.1V22.9512C21.1 23.7792 20.428 24.4512 19.6 24.4512Z" fill="#C3B6BE" stroke="#C3B6BE" stroke-width="1.5" stroke-linecap="round" stroke-linejoin="round"/>
<path fill-rule="evenodd" clip-rule="evenodd" d="M21.1 10.9496C21.1 6.47661 17.473 2.84961 13 2.84961C8.52702 2.84961 4.90002 6.47661 4.90002 10.9496" fill="#C3B6BE"/>
<path d="M21.1 10.9496V10.9496C21.1 6.47661 17.473 2.84961 13 2.84961V2.84961C8.52702 2.84961 4.90002 6.47661 4.90002 10.9496V10.9496" stroke="#C3B6BE" stroke-width="1.5" stroke-linecap="round" stroke-linejoin="round"/>
<path d="M25 10.874V19.124" stroke="#C3B6BE" stroke-width="1.5" stroke-linecap="round" stroke-linejoin="round"/>
<path d="M1.00012 10.874V19.124" stroke="#C3B6BE" stroke-width="1.5" stroke-linecap="round" stroke-linejoin="round"/>
<path d="M8.9502 24.4512V28.5012" stroke="#C3B6BE" stroke-width="1.5" stroke-linecap="round" stroke-linejoin="round"/>
<path d="M17.0499 24.4512V28.5012" stroke="#C3B6BE" stroke-width="1.5" stroke-linecap="round" stroke-linejoin="round"/>
</svg>
