<svg width="24" height="26" viewBox="0 0 24 26" fill="none" xmlns="http://www.w3.org/2000/svg">
<path d="M7.20007 1L9.00007 2.8" stroke="#C8C4BB" stroke-width="1.5" stroke-linecap="round" stroke-linejoin="round"/>
<path d="M16.8 1L15 2.8" stroke="#C8C4BB" stroke-width="1.5" stroke-linecap="round" stroke-linejoin="round"/>
<path fill-rule="evenodd" clip-rule="evenodd" d="M17.8666 21.4001H6.13326C5.39726 21.4001 4.79993 20.8028 4.79993 20.0668V9.40015H19.1999V20.0668C19.1999 20.8028 18.6026 21.4001 17.8666 21.4001Z" fill="#C8C4BB" stroke="#C8C4BB" stroke-width="1.5" stroke-linecap="round" stroke-linejoin="round"/>
<path fill-rule="evenodd" clip-rule="evenodd" d="M19.1999 9.39971C19.1999 5.42371 15.9759 2.19971 11.9999 2.19971C8.02393 2.19971 4.79993 5.42371 4.79993 9.39971" fill="#C8C4BB"/>
<path d="M19.1999 9.39971V9.39971C19.1999 5.42371 15.9759 2.19971 11.9999 2.19971V2.19971C8.02393 2.19971 4.79993 5.42371 4.79993 9.39971V9.39971" stroke="#C8C4BB" stroke-width="1.5" stroke-linecap="round" stroke-linejoin="round"/>
<path d="M22.6667 9.33325V16.6666" stroke="#C8C4BB" stroke-width="1.5" stroke-linecap="round" stroke-linejoin="round"/>
<path d="M1.33329 9.33325V16.6666" stroke="#C8C4BB" stroke-width="1.5" stroke-linecap="round" stroke-linejoin="round"/>
<path d="M8.40007 21.4001V25.0001" stroke="#C8C4BB" stroke-width="1.5" stroke-linecap="round" stroke-linejoin="round"/>
<path d="M15.5999 21.4001V25.0001" stroke="#C8C4BB" stroke-width="1.5" stroke-linecap="round" stroke-linejoin="round"/>
</svg>
