<svg width="32" height="32" viewBox="0 0 32 32" fill="none" xmlns="http://www.w3.org/2000/svg">
<path d="M11.2001 4L13.0001 5.8" stroke="#C8C4BB" stroke-width="1.5" stroke-linecap="round" stroke-linejoin="round"/>
<path d="M20.8 4L19 5.8" stroke="#C8C4BB" stroke-width="1.5" stroke-linecap="round" stroke-linejoin="round"/>
<path fill-rule="evenodd" clip-rule="evenodd" d="M21.8666 24.4001H10.1333C9.39726 24.4001 8.79993 23.8028 8.79993 23.0668V12.4001H23.1999V23.0668C23.1999 23.8028 22.6026 24.4001 21.8666 24.4001Z" fill="#C8C4BB" stroke="#C8C4BB" stroke-width="1.5" stroke-linecap="round" stroke-linejoin="round"/>
<path fill-rule="evenodd" clip-rule="evenodd" d="M23.1999 12.3997C23.1999 8.42371 19.9759 5.19971 15.9999 5.19971C12.0239 5.19971 8.79993 8.42371 8.79993 12.3997" fill="#C8C4BB"/>
<path d="M23.1999 12.3997V12.3997C23.1999 8.42371 19.9759 5.19971 15.9999 5.19971V5.19971C12.0239 5.19971 8.79993 8.42371 8.79993 12.3997V12.3997" stroke="#C8C4BB" stroke-width="1.5" stroke-linecap="round" stroke-linejoin="round"/>
<path d="M26.6667 12.3333V19.6666" stroke="#C8C4BB" stroke-width="1.5" stroke-linecap="round" stroke-linejoin="round"/>
<path d="M5.33329 12.3333V19.6666" stroke="#C8C4BB" stroke-width="1.5" stroke-linecap="round" stroke-linejoin="round"/>
<path d="M12.4001 24.4001V28.0001" stroke="#C8C4BB" stroke-width="1.5" stroke-linecap="round" stroke-linejoin="round"/>
<path d="M19.5999 24.4001V28.0001" stroke="#C8C4BB" stroke-width="1.5" stroke-linecap="round" stroke-linejoin="round"/>
</svg>
