<svg width="36" height="36" viewBox="0 0 36 36" fill="none" xmlns="http://www.w3.org/2000/svg">
<path d="M12.6 4.5L14.625 6.525" stroke="#C3B6BE" stroke-width="1.5" stroke-linecap="round" stroke-linejoin="round"/>
<path d="M23.4 4.5L21.375 6.525" stroke="#C3B6BE" stroke-width="1.5" stroke-linecap="round" stroke-linejoin="round"/>
<path fill-rule="evenodd" clip-rule="evenodd" d="M24.6 27.4512H11.4C10.572 27.4512 9.90002 26.7792 9.90002 25.9512V13.9512H26.1V25.9512C26.1 26.7792 25.428 27.4512 24.6 27.4512Z" fill="#C3B6BE" stroke="#C3B6BE" stroke-width="1.5" stroke-linecap="round" stroke-linejoin="round"/>
<path fill-rule="evenodd" clip-rule="evenodd" d="M26.1 13.9496C26.1 9.47661 22.473 5.84961 18 5.84961C13.527 5.84961 9.90002 9.47661 9.90002 13.9496" fill="#C3B6BE"/>
<path d="M26.1 13.9496V13.9496C26.1 9.47661 22.473 5.84961 18 5.84961V5.84961C13.527 5.84961 9.90002 9.47661 9.90002 13.9496V13.9496" stroke="#C3B6BE" stroke-width="1.5" stroke-linecap="round" stroke-linejoin="round"/>
<path d="M30 13.874V22.124" stroke="#C3B6BE" stroke-width="1.5" stroke-linecap="round" stroke-linejoin="round"/>
<path d="M6.00012 13.874V22.124" stroke="#C3B6BE" stroke-width="1.5" stroke-linecap="round" stroke-linejoin="round"/>
<path d="M13.9502 27.4512V31.5012" stroke="#C3B6BE" stroke-width="1.5" stroke-linecap="round" stroke-linejoin="round"/>
<path d="M22.0499 27.4512V31.5012" stroke="#C3B6BE" stroke-width="1.5" stroke-linecap="round" stroke-linejoin="round"/>
</svg>
