<svg width="368" height="523" viewBox="0 0 368 523" fill="none" xmlns="http://www.w3.org/2000/svg">
<path d="M70.5 63.4515C70.5 48.5119 70.5792 42.4554 72.2595 37.7113C75.819 27.6618 84.5016 19.5622 95.8674 16.1744C101.291 14.558 108.178 14.5 124.357 14.5H277.642C293.822 14.5 300.709 14.558 306.132 16.1744C317.498 19.5622 326.181 27.6618 329.74 37.7113C331.421 42.4554 331.5 48.5119 331.5 63.4515V467.949C331.5 482.888 331.421 488.945 329.74 493.689C326.181 503.738 317.498 511.838 306.132 515.226C300.709 516.842 293.822 516.9 277.642 516.9H124.357C108.178 516.9 101.291 516.842 95.8674 515.226C84.5016 511.838 75.819 503.738 72.2595 493.689C70.5792 488.945 70.5 482.888 70.5 467.949V63.4515Z" fill="white" stroke="#563746" stroke-width="11"/>
<path d="M68.2581 62.2512C68.2581 48.8864 68.2581 42.204 70.1735 36.796C74.0449 25.8661 83.3861 17.2968 95.3008 13.7455C101.196 11.9883 108.481 11.9883 123.049 11.9883H278.944C293.513 11.9883 300.797 11.9883 306.692 13.7455C318.607 17.2968 327.948 25.8661 331.82 36.796C333.735 42.204 333.735 48.8864 333.735 62.2512V469.142C333.735 482.506 333.735 489.189 331.82 494.597C327.948 505.527 318.607 514.096 306.692 517.647C300.797 519.405 293.513 519.405 278.944 519.405H123.049C108.481 519.405 101.196 519.405 95.3008 517.647C83.3861 514.096 74.0449 505.527 70.1735 494.597C68.2581 489.189 68.2581 482.506 68.2581 469.142V62.2512Z" fill="#F4F3F0"/>
<mask id="mask0_427_6209" style="mask-type:alpha" maskUnits="userSpaceOnUse" x="77" y="20" width="248" height="492">
<path d="M134.143 26.3528V23.6602C134.143 21.8426 132.536 20.3692 130.555 20.3692L122.153 20.3691C109.019 20.3691 102.452 20.3691 97.2147 22.1847C88.9824 25.0383 82.484 30.9997 79.3733 38.5516C77.3942 43.3562 77.3942 49.3805 77.3942 61.4292V469.971C77.3942 482.02 77.3942 488.044 79.3733 492.849C82.484 500.401 88.9824 506.362 97.2147 509.216C102.452 511.031 109.019 511.031 122.153 511.031H279.848C292.982 511.031 299.549 511.031 304.787 509.216C313.019 506.362 319.517 500.401 322.628 492.849C324.607 488.044 324.607 482.02 324.607 469.971V61.4292C324.607 49.3805 324.607 43.3562 322.628 38.5516C319.517 30.9997 313.019 25.0383 304.787 22.1847C299.549 20.3691 292.982 20.3691 279.848 20.3691L271.446 20.3692C269.465 20.3692 267.859 21.8426 267.859 23.6602V26.3528L267.812 26.3515L267.859 26.652C267.859 33.7571 261.58 39.5169 253.835 39.5169H148.166C140.421 39.5169 134.142 33.7571 134.142 26.652L134.189 26.3515L134.143 26.3528Z" fill="#C4C4C4"/>
</mask>
<g mask="url(#mask0_427_6209)">
<path d="M78 20H325.213V510.662H78V20Z" fill="white"/>
<path fill-rule="evenodd" clip-rule="evenodd" d="M228.722 32.9289C231.604 32.9289 233.94 30.7857 233.94 28.1419C233.94 25.4982 231.604 23.355 228.722 23.355C225.84 23.355 223.503 25.4982 223.503 28.1419C223.503 30.7857 225.84 32.9289 228.722 32.9289Z" fill="white"/>
<path fill-rule="evenodd" clip-rule="evenodd" d="M228.718 31.139C230.519 31.139 231.979 29.7995 231.979 28.1471C231.979 26.4948 230.519 25.1553 228.718 25.1553C226.916 25.1553 225.456 26.4948 225.456 28.1471C225.456 29.7995 226.916 31.139 228.718 31.139Z" fill="white"/>
<path opacity="0.4" fill-rule="evenodd" clip-rule="evenodd" d="M228.723 27.5504C229.083 27.5504 229.375 27.2823 229.375 26.9515C229.375 26.6207 229.083 26.3525 228.723 26.3525C228.363 26.3525 228.07 26.6207 228.07 26.9515C228.07 27.2823 228.363 27.5504 228.723 27.5504Z" fill="white"/>
<path fill-rule="evenodd" clip-rule="evenodd" d="M185.017 28.1476C185.017 27.1562 185.821 26.3525 186.812 26.3525H215.184C216.175 26.3525 216.979 27.1562 216.979 28.1476V28.1476C216.979 29.1391 216.175 29.9428 215.184 29.9428H186.812C185.821 29.9428 185.017 29.1391 185.017 28.1476V28.1476Z" fill="white"/>
</g>
<rect x="100" y="53" width="202" height="192" rx="8" fill="#F4F3F0"/>
<rect x="100" y="374" width="202" height="51" rx="8" fill="#F4F3F0"/>
<rect x="154" y="393" width="135" height="4" rx="2" fill="#E3E2DF"/>
<rect x="154" y="403" width="81" height="4" rx="2" fill="#E3E2DF"/>
<path fill-rule="evenodd" clip-rule="evenodd" d="M126.456 395.224C125.582 395.224 124.219 394.205 122.803 394.205C120.92 394.205 119.198 395.356 118.227 397.044C116.275 400.433 117.724 405.441 119.628 408.196C120.563 409.537 121.664 411.046 123.126 410.998C124.527 410.938 125.054 410.088 126.755 410.088C128.444 410.088 128.923 410.998 130.408 410.962C131.918 410.938 132.876 409.597 133.798 408.244C134.864 406.686 135.307 405.177 135.331 405.093C135.295 405.081 132.396 403.968 132.36 400.613C132.336 397.81 134.648 396.469 134.756 396.409C133.439 394.481 131.415 394.265 130.708 394.217C128.863 394.073 127.319 395.224 126.456 395.224V395.224Z" fill="#E3E2DF" stroke="#E3E2DF" stroke-width="1.5" stroke-linecap="round" stroke-linejoin="round"/>
<path fill-rule="evenodd" clip-rule="evenodd" d="M129.201 386.939C130.36 386.508 131.118 387.144 130.894 388.36C130.67 389.576 129.55 390.911 128.391 391.343C127.232 391.774 126.474 391.138 126.698 389.922C126.922 388.706 128.042 387.371 129.201 386.939" fill="#E3E2DF"/>
<path d="M129.201 386.939C130.36 386.508 131.118 387.144 130.894 388.36C130.67 389.576 129.55 390.911 128.391 391.343C127.232 391.774 126.474 391.138 126.698 389.922C126.922 388.706 128.042 387.371 129.201 386.939" stroke="#E3E2DF" stroke-width="1.49996" stroke-linecap="round" stroke-linejoin="round"/>
<rect x="100" y="433" width="202" height="51" rx="8" fill="#F4F3F0"/>
<rect x="154" y="452" width="135" height="4" rx="2" fill="#E3E2DF"/>
<rect x="154" y="462" width="81" height="4" rx="2" fill="#E3E2DF"/>
<path d="M122.2 446L124 447.8" stroke="#E3E2DF" stroke-width="1.5" stroke-linecap="round" stroke-linejoin="round"/>
<path d="M131.8 446L130 447.8" stroke="#E3E2DF" stroke-width="1.5" stroke-linecap="round" stroke-linejoin="round"/>
<path fill-rule="evenodd" clip-rule="evenodd" d="M132.867 466.4H121.133C120.397 466.4 119.8 465.803 119.8 465.067V454.4H134.2V465.067C134.2 465.803 133.603 466.4 132.867 466.4Z" fill="#E3E2DF" stroke="#E3E2DF" stroke-width="1.5" stroke-linecap="round" stroke-linejoin="round"/>
<path fill-rule="evenodd" clip-rule="evenodd" d="M134.2 454.399V454.399C134.2 450.423 130.976 447.199 127 447.199V447.199C123.024 447.199 119.8 450.423 119.8 454.399V454.399" fill="#E3E2DF"/>
<path d="M134.2 454.399V454.399C134.2 450.423 130.976 447.199 127 447.199V447.199C123.024 447.199 119.8 450.423 119.8 454.399V454.399" stroke="#E3E2DF" stroke-width="1.5" stroke-linecap="round" stroke-linejoin="round"/>
<path d="M137.667 454.333V461.666" stroke="#E3E2DF" stroke-width="1.5" stroke-linecap="round" stroke-linejoin="round"/>
<path d="M116.333 454.333V461.666" stroke="#E3E2DF" stroke-width="1.5" stroke-linecap="round" stroke-linejoin="round"/>
<path d="M123.4 466.4V470" stroke="#E3E2DF" stroke-width="1.5" stroke-linecap="round" stroke-linejoin="round"/>
<path d="M130.6 466.4V470" stroke="#E3E2DF" stroke-width="1.5" stroke-linecap="round" stroke-linejoin="round"/>
<rect x="100" y="290" width="62" height="56" rx="4" fill="#F4F3F0"/>
<rect x="170" y="290" width="62" height="56" rx="4" fill="#F4F3F0"/>
<rect x="240" y="290" width="62" height="56" rx="4" fill="#F4F3F0"/>
<rect x="171" y="254" width="10.7396" height="10.2079" rx="2" fill="#F4F3F0"/>
<rect x="186" y="254" width="10.7396" height="10.2079" rx="2" fill="#F4F3F0"/>
<rect x="201" y="254" width="10.7396" height="10.2079" rx="2" fill="#F4F3F0"/>
<rect x="216" y="254" width="10.7396" height="10.2079" rx="2" fill="#F4F3F0"/>
<g filter="url(#filter0_b_427_6209)">
<rect opacity="0.3" x="110.151" y="101" width="257.204" height="104" rx="20" fill="#C9E4E9"/>
<path d="M236.609 140.979V153.839" stroke="#C1D4D9" stroke-width="3.5" stroke-linecap="round" stroke-linejoin="round"/>
<path d="M241.61 148.839L236.609 153.839L231.609 148.839" stroke="#C1D4D9" stroke-width="3.5" stroke-linecap="round" stroke-linejoin="round"/>
<path d="M225.892 142.57C220.489 138.808 218.171 131.962 220.176 125.691C222.182 119.42 228.041 115.189 234.625 115.26C241.208 115.33 246.977 119.685 248.848 125.997C253.991 126.235 258.039 130.472 258.043 135.621C258.046 138.18 257.031 140.635 255.222 142.445C253.412 144.254 250.957 145.269 248.398 145.266H247.326" stroke="#C1D4D9" stroke-width="3.5" stroke-linecap="round" stroke-linejoin="round"/>
<rect opacity="0.3" x="126.306" y="174.188" width="221.538" height="9.06452" rx="4.53226" stroke="#BCBCBC"/>
<rect x="125.806" y="173.688" width="121.892" height="10.0645" rx="5.03226" fill="#C1D4D9"/>
</g>
<g filter="url(#filter1_b_427_6209)">
<rect opacity="0.3" x="271" y="375.354" width="80" height="75" rx="20" transform="rotate(-14 271 375.354)" fill="#D6D6D3"/>
<path d="M318.249 394.372L316.233 386.287" stroke="#FE82F3" stroke-width="2.5" stroke-linecap="round" stroke-linejoin="round"/>
<path d="M324.319 384.271L326.335 392.356" stroke="#FE82F3" stroke-width="2.5" stroke-linecap="round" stroke-linejoin="round"/>
<path d="M322.498 387.301L324.319 384.271L327.349 386.092" stroke="#FE82F3" stroke-width="2.5" stroke-linecap="round" stroke-linejoin="round"/>
<path d="M315.218 392.551L318.249 394.372L320.07 391.342" stroke="#FE82F3" stroke-width="2.5" stroke-linecap="round" stroke-linejoin="round"/>
<path d="M327.947 398.825L330.77 410.145C331.215 411.931 330.128 413.74 328.342 414.186L315.405 417.411C313.618 417.857 311.809 416.77 311.364 414.983L305.719 392.343C305.274 390.557 306.361 388.748 308.147 388.302L309.764 387.899" stroke="#FE82F3" stroke-width="2.5" stroke-linecap="round" stroke-linejoin="round"/>
<path d="M317.429 411.754L323.898 410.141" stroke="#FE82F3" stroke-width="2.5" stroke-linecap="round" stroke-linejoin="round"/>
</g>
<g filter="url(#filter2_b_427_6209)">
<rect opacity="0.3" x="13.0236" width="80" height="75" rx="20" transform="rotate(10 13.0236 0)" fill="#D6D6D3"/>
<path d="M18.9361 46.5692L20.2572 44.0256L24.158 44.7134L24.5295 47.5555L26.9992 47.9909L25.0945 36.2077L22.3632 35.7261L16.551 46.1486L18.9361 46.5692ZM23.289 38.0789L23.3429 38.0884L23.9645 42.8864L21.0639 42.375L23.289 38.0789ZM30.1921 48.5539L31.0265 43.8222C31.1214 43.2837 31.3526 42.8723 31.711 42.5943C32.0694 42.3164 32.4916 42.2163 32.9917 42.3045C33.9842 42.4795 34.4003 43.1796 34.209 44.2644L33.3543 49.1115L35.6009 49.5076L36.5383 44.1912C36.7093 43.2218 36.596 42.4244 36.1922 41.7899C35.7884 41.1555 35.1358 40.7628 34.2202 40.6013C32.9661 40.3802 31.995 40.8039 31.3566 41.7703L31.3104 41.7621L31.5695 40.2926L29.3998 39.91L27.9455 48.1578L30.1921 48.5539ZM37.454 45.5664C37.2221 46.8821 37.3376 47.9813 37.8111 48.8502C38.2846 49.7191 39.0323 50.2476 40.0633 50.4293C40.6557 50.5338 41.211 50.4889 41.7152 50.2843C42.2193 50.0797 42.6152 49.7687 42.9057 49.336L42.9442 49.3428L42.6946 50.7584L44.9104 51.1492L46.868 40.047L44.6214 39.6509L43.8685 43.9209L43.8223 43.9128C43.6973 43.4068 43.4393 42.9805 43.051 42.6185C42.6549 42.2552 42.1639 42.0258 41.5791 41.9227C40.5405 41.7396 39.6584 41.9728 38.9163 42.6273C38.1742 43.2818 37.6847 44.2585 37.454 45.5664ZM39.7518 45.9875C39.8847 45.2335 40.1521 44.6618 40.5603 44.2816C40.9607 43.9 41.4463 43.7556 42.008 43.8546C42.5696 43.9537 42.9765 44.2555 43.23 44.7524C43.4822 45.2569 43.5379 45.8856 43.4063 46.6319C43.2734 47.3858 43.0074 47.9498 42.5992 48.33C42.1897 48.7179 41.7055 48.8546 41.1438 48.7556C40.5822 48.6566 40.1739 48.3625 39.9281 47.8669C39.6746 47.3701 39.6175 46.7491 39.7518 45.9875ZM48.6573 51.8098L49.4699 47.2012C49.6748 46.0395 50.4404 45.4764 51.5483 45.6717C51.8792 45.7301 52.148 45.8251 52.3408 45.9463L52.6895 43.969C52.5066 43.8812 52.3043 43.8138 52.0658 43.7718C51.0887 43.5995 50.2882 44.0454 49.819 45.0415L49.7728 45.0334L50.0346 43.5485L47.865 43.1659L46.4107 51.4137L48.6573 51.8098ZM52.3017 48.1924C52.0643 49.5388 52.2478 50.658 52.8444 51.5486C53.441 52.4391 54.3734 53.0002 55.6274 53.2213C56.8815 53.4424 57.9482 53.2418 58.8134 52.609C59.6786 51.9762 60.2352 50.9796 60.4726 49.6332C60.7073 48.3021 60.5225 47.1906 59.9195 46.291C59.3152 45.3991 58.3906 44.8394 57.1442 44.6196C55.9055 44.4012 54.8451 44.6109 53.9722 45.2424C53.0902 45.8801 52.5364 46.8614 52.3017 48.1924ZM54.5778 48.6017C54.7202 47.7938 54.9944 47.1837 55.4052 46.7881C55.8084 46.3912 56.2877 46.2377 56.8416 46.3354C57.3956 46.433 57.7934 46.7412 58.0365 47.2521C58.2796 47.763 58.3286 48.4301 58.1862 49.2379C58.041 50.0612 57.7682 50.6636 57.365 51.0605C56.9618 51.4575 56.4839 51.6033 55.93 51.5056C55.3683 51.4066 54.9691 51.1061 54.726 50.5952C54.4829 50.0843 54.4326 49.4249 54.5778 48.6017ZM62.9474 44.326C63.1311 44.5885 63.3878 44.7527 63.7109 44.8097C64.0341 44.8667 64.3314 44.8001 64.6015 44.6177C64.864 44.4339 65.0282 44.1773 65.0839 43.8618C65.1395 43.5464 65.0729 43.2491 64.8891 42.9866C64.7054 42.7241 64.4487 42.5599 64.1179 42.5016C63.7871 42.4432 63.4897 42.5098 63.2273 42.6936C62.9648 42.8774 62.8006 43.134 62.745 43.4494C62.6893 43.7649 62.7559 44.0622 62.9474 44.326ZM63.1909 54.3725L64.6452 46.1247L62.3986 45.7286L60.9443 53.9764L63.1909 54.3725ZM65.121 50.4449C64.889 51.7605 65.0046 52.8598 65.4781 53.7286C65.9516 54.5975 66.6993 55.126 67.7303 55.3078C68.3227 55.4122 68.878 55.3674 69.3821 55.1627C69.8862 54.9581 70.2822 54.6471 70.5727 54.2144L70.6111 54.2212L70.3615 55.6369L72.5773 56.0276L74.535 44.9254L72.2884 44.5293L71.5354 48.7993L71.4893 48.7912C71.3643 48.2853 71.1063 47.859 70.7179 47.497C70.3219 47.1336 69.8308 46.9042 69.2461 46.8011C68.2074 46.618 67.3254 46.8512 66.5833 47.5057C65.8412 48.1602 65.3516 49.1369 65.121 50.4449ZM67.4187 50.8659C67.5517 50.1119 67.8191 49.5403 68.2272 49.16C68.6277 48.7785 69.1133 48.634 69.6749 48.7331C70.2366 48.8321 70.6435 49.1339 70.897 49.6308C71.1491 50.1354 71.2049 50.764 71.0733 51.5103C70.9403 52.2643 70.6743 52.8282 70.2661 53.2084C69.8566 53.5963 69.3724 53.7331 68.8108 53.634C68.2491 53.535 67.8408 53.2409 67.595 52.7454C67.3415 52.2485 67.2844 51.6276 67.4187 50.8659Z" fill="#4AAAC5"/>
</g>
<defs>
<filter id="filter0_b_427_6209" x="98.1505" y="89" width="281.204" height="128" filterUnits="userSpaceOnUse" color-interpolation-filters="sRGB">
<feFlood flood-opacity="0" result="BackgroundImageFix"/>
<feGaussianBlur in="BackgroundImage" stdDeviation="6"/>
<feComposite in2="SourceAlpha" operator="in" result="effect1_backgroundBlur_427_6209"/>
<feBlend mode="normal" in="SourceGraphic" in2="effect1_backgroundBlur_427_6209" result="shape"/>
</filter>
<filter id="filter1_b_427_6209" x="263.24" y="348.239" width="111.289" height="107.646" filterUnits="userSpaceOnUse" color-interpolation-filters="sRGB">
<feFlood flood-opacity="0" result="BackgroundImageFix"/>
<feGaussianBlur in="BackgroundImage" stdDeviation="6"/>
<feComposite in2="SourceAlpha" operator="in" result="effect1_backgroundBlur_427_6209"/>
<feBlend mode="normal" in="SourceGraphic" in2="effect1_backgroundBlur_427_6209" result="shape"/>
</filter>
<filter id="filter2_b_427_6209" x="-8.83423" y="-8.83398" width="109.477" height="105.42" filterUnits="userSpaceOnUse" color-interpolation-filters="sRGB">
<feFlood flood-opacity="0" result="BackgroundImageFix"/>
<feGaussianBlur in="BackgroundImage" stdDeviation="6"/>
<feComposite in2="SourceAlpha" operator="in" result="effect1_backgroundBlur_427_6209"/>
<feBlend mode="normal" in="SourceGraphic" in2="effect1_backgroundBlur_427_6209" result="shape"/>
</filter>
</defs>
</svg>
