<svg width="36" height="36" viewBox="0 0 36 36" fill="none" xmlns="http://www.w3.org/2000/svg">
<path fill-rule="evenodd" clip-rule="evenodd" d="M17.3884 13.751C16.4044 13.751 14.8714 12.605 13.2784 12.605C11.1604 12.605 9.22236 13.8995 8.13036 15.7985C5.93436 19.6115 7.56486 25.2455 9.70686 28.3445C10.7584 29.8535 11.9974 31.5515 13.6414 31.4975C15.2179 31.43 15.8104 30.473 17.7244 30.473C19.6249 30.473 20.1634 31.4975 21.8344 31.457C23.5324 31.43 24.6109 29.921 25.6474 28.3985C26.8474 26.6465 27.3454 24.9485 27.3724 24.854C27.3319 24.8405 24.0709 23.588 24.0304 19.814C24.0034 16.661 26.6044 15.152 26.7259 15.0845C25.2439 12.9155 22.9669 12.6725 22.1719 12.6185C20.0959 12.4565 18.3589 13.751 17.3884 13.751Z" fill="#C4B6BE" stroke="#C4B6BE" stroke-width="1.5" stroke-linecap="round" stroke-linejoin="round"/>
<path fill-rule="evenodd" clip-rule="evenodd" d="M20.4765 4.43095C21.78 3.94566 22.6326 4.66116 22.3809 6.02907C22.1292 7.39697 20.8686 8.89927 19.5651 9.38455C18.2617 9.86983 17.409 9.15433 17.6607 7.78643C17.9124 6.41853 19.173 4.91623 20.4765 4.43095Z" fill="#C4B6BE"/>
<path d="M20.4765 4.43095C21.78 3.94566 22.6326 4.66116 22.3809 6.02907C22.1292 7.39697 20.8686 8.89927 19.5651 9.38455C18.2617 9.86983 17.409 9.15433 17.6607 7.78643C17.9124 6.41853 19.173 4.91623 20.4765 4.43095" stroke="#C4B6BE" stroke-width="1.49996" stroke-linecap="round" stroke-linejoin="round"/>
</svg>
