<svg width="24" height="25" viewBox="0 0 24 25" fill="none" xmlns="http://www.w3.org/2000/svg">
<path d="M15 10.5L12 13.5L9 10.5" stroke="#563746" stroke-width="2" stroke-linecap="round" stroke-linejoin="round"/>
<path d="M12 3.5V13.5" stroke="#563746" stroke-width="2" stroke-linecap="round" stroke-linejoin="round"/>
<path d="M8 16.5H16" stroke="#563746" stroke-width="2" stroke-linecap="round" stroke-linejoin="round"/>
<path d="M19.0711 5.42864C18.6806 5.03811 18.0474 5.03811 17.6569 5.42864C17.2664 5.81916 17.2664 6.45232 17.6569 6.84285L19.0711 5.42864ZM6.34311 6.84285C6.73364 6.45232 6.73364 5.81916 6.34311 5.42864C5.95259 5.03811 5.31942 5.03811 4.9289 5.42864L6.34311 6.84285ZM17.6569 6.84285C20.7814 9.96732 20.7814 15.0322 17.6569 18.1566L19.0711 19.5708C22.9766 15.6653 22.9766 9.33416 19.0711 5.42864L17.6569 6.84285ZM17.6569 18.1566C14.5324 21.2811 9.46759 21.2811 6.34311 18.1566L4.9289 19.5708C8.83442 23.4764 15.1656 23.4764 19.0711 19.5708L17.6569 18.1566ZM6.34311 18.1566C3.21864 15.0322 3.21864 9.96732 6.34311 6.84285L4.9289 5.42864C1.02337 9.33416 1.02337 15.6653 4.9289 19.5708L6.34311 18.1566Z" fill="#563746"/>
</svg>
