<svg width="32" height="32" viewBox="0 0 32 32" fill="none" xmlns="http://www.w3.org/2000/svg">
<path fill-rule="evenodd" clip-rule="evenodd" d="M15.4562 12.224C14.5815 12.224 13.2188 11.2053 11.8028 11.2053C9.92017 11.2053 8.19751 12.356 7.22684 14.044C5.27484 17.4333 6.72417 22.4413 8.62817 25.196C9.56284 26.5373 10.6642 28.0466 12.1255 27.9986C13.5268 27.9386 14.0535 27.088 15.7548 27.088C17.4442 27.088 17.9228 27.9986 19.4082 27.9626C20.9175 27.9386 21.8762 26.5973 22.7975 25.244C23.8642 23.6866 24.3068 22.1773 24.3308 22.0933C24.2948 22.0813 21.3962 20.968 21.3602 17.6133C21.3362 14.8106 23.6482 13.4693 23.7562 13.4093C22.4388 11.4813 20.4148 11.2653 19.7082 11.2173C17.8628 11.0733 16.3188 12.224 15.4562 12.224V12.224Z" fill="#C8C4BB" stroke="#C8C4BB" stroke-width="1.5" stroke-linecap="round" stroke-linejoin="round"/>
<path fill-rule="evenodd" clip-rule="evenodd" d="M18.201 3.93894C19.3596 3.50758 20.1175 4.14358 19.8938 5.3595C19.6701 6.57541 18.5495 7.91079 17.3909 8.34215C16.2323 8.77351 15.4744 8.13751 15.6981 6.9216C15.9218 5.70568 17.0424 4.3703 18.201 3.93894" fill="#C8C4BB"/>
<path d="M18.201 3.93894C19.3596 3.50758 20.1175 4.14358 19.8938 5.3595C19.6701 6.57541 18.5495 7.91079 17.3909 8.34215C16.2323 8.77351 15.4744 8.13751 15.6981 6.9216C15.9218 5.70568 17.0424 4.3703 18.201 3.93894" stroke="#C8C4BB" stroke-width="1.49996" stroke-linecap="round" stroke-linejoin="round"/>
</svg>
