<svg width="21" height="26" viewBox="0 0 21 26" fill="none" xmlns="http://www.w3.org/2000/svg">
<path fill-rule="evenodd" clip-rule="evenodd" d="M10.4562 9.22397C9.58151 9.22397 8.21884 8.2053 6.80284 8.2053C4.92017 8.2053 3.19751 9.35597 2.22684 11.044C0.27484 14.4333 1.72417 19.4413 3.62817 22.196C4.56284 23.5373 5.66417 25.0466 7.12551 24.9986C8.52684 24.9386 9.05351 24.088 10.7548 24.088C12.4442 24.088 12.9228 24.9986 14.4082 24.9626C15.9175 24.9386 16.8762 23.5973 17.7975 22.244C18.8642 20.6866 19.3068 19.1773 19.3308 19.0933C19.2948 19.0813 16.3962 17.968 16.3602 14.6133C16.3362 11.8106 18.6482 10.4693 18.7562 10.4093C17.4388 8.4813 15.4148 8.2653 14.7082 8.2173C12.8628 8.0733 11.3188 9.22397 10.4562 9.22397V9.22397Z" fill="#C8C4BB" stroke="#C8C4BB" stroke-width="1.5" stroke-linecap="round" stroke-linejoin="round"/>
<path fill-rule="evenodd" clip-rule="evenodd" d="M13.201 0.938944C14.3596 0.507581 15.1175 1.14358 14.8938 2.3595C14.6701 3.57541 13.5495 4.91079 12.3909 5.34215C11.2323 5.77351 10.4744 5.13751 10.6981 3.9216C10.9218 2.70568 12.0424 1.3703 13.201 0.938944" fill="#C8C4BB"/>
<path d="M13.201 0.938944C14.3596 0.507581 15.1175 1.14358 14.8938 2.3595C14.6701 3.57541 13.5495 4.91079 12.3909 5.34215C11.2323 5.77351 10.4744 5.13751 10.6981 3.9216C10.9218 2.70568 12.0424 1.3703 13.201 0.938944" stroke="#C8C4BB" stroke-width="1.49996" stroke-linecap="round" stroke-linejoin="round"/>
</svg>
