<svg width="399" height="539" viewBox="0 0 399 539" fill="none" xmlns="http://www.w3.org/2000/svg">
<path d="M68.3838 80.0145C68.3838 65.0749 68.463 59.0183 70.1433 54.2743C73.7028 44.2248 82.3854 36.1252 93.7512 32.7374C99.1744 31.121 106.061 31.063 122.241 31.063H275.526C291.706 31.063 298.593 31.121 304.016 32.7374C315.382 36.1252 324.065 44.2248 327.624 54.2743C329.304 59.0183 329.384 65.0749 329.384 80.0145V484.512C329.384 499.451 329.304 505.508 327.624 510.252C324.065 520.301 315.382 528.401 304.016 531.789C298.593 533.405 291.706 533.463 275.526 533.463H122.241C106.061 533.463 99.1744 533.405 93.7512 531.789C82.3854 528.401 73.7028 520.301 70.1433 510.252C68.463 505.508 68.3838 499.451 68.3838 484.512V80.0145Z" fill="white" stroke="#563746" stroke-width="11"/>
<path d="M66.1418 78.8142C66.1418 65.4494 66.1418 58.767 68.0573 53.359C71.9286 42.429 81.2699 33.8598 93.1846 30.3084C99.0799 28.5513 106.364 28.5513 120.933 28.5513H276.827C291.396 28.5513 298.681 28.5513 304.576 30.3084C316.491 33.8598 325.832 42.429 329.703 53.359C331.619 58.767 331.619 65.4494 331.619 78.8142V485.705C331.619 499.069 331.619 505.752 329.703 511.16C325.832 522.09 316.491 530.659 304.576 534.21C298.681 535.968 291.396 535.968 276.827 535.968H120.933C106.364 535.968 99.0799 535.968 93.1846 534.21C81.2699 530.659 71.9286 522.09 68.0573 511.16C66.1418 505.752 66.1418 499.069 66.1418 485.705V78.8142Z" fill="#F4F3F0"/>
<mask id="mask0_99_611" style="mask-type:alpha" maskUnits="userSpaceOnUse" x="75" y="36" width="248" height="492">
<path d="M132.026 42.9158V40.2232C132.026 38.4056 130.42 36.9321 128.439 36.9321L120.037 36.9321C106.903 36.9321 100.336 36.9321 95.0985 38.7477C86.8662 41.6013 80.3678 47.5627 77.257 55.1146C75.278 59.9192 75.278 65.9435 75.278 77.9922V486.534C75.278 498.583 75.278 504.607 77.257 509.412C80.3678 516.964 86.8662 522.925 95.0985 525.779C100.336 527.594 106.903 527.594 120.037 527.594H277.732C290.866 527.594 297.433 527.594 302.671 525.779C310.903 522.925 317.401 516.964 320.512 509.412C322.491 504.607 322.491 498.583 322.491 486.534V77.9922C322.491 65.9435 322.491 59.9192 320.512 55.1146C317.401 47.5627 310.903 41.6013 302.671 38.7477C297.433 36.9321 290.866 36.9321 277.732 36.9321L269.33 36.9321C267.349 36.9321 265.743 38.4056 265.743 40.2232V42.9158L265.696 42.9145L265.743 43.215C265.743 50.3201 259.464 56.0799 251.719 56.0799H146.05C138.305 56.0799 132.026 50.3201 132.026 43.215L132.073 42.9145L132.026 42.9158Z" fill="#C4C4C4"/>
</mask>
<g mask="url(#mask0_99_611)">
<path d="M75.8838 36.563H323.097V527.225H75.8838V36.563Z" fill="white"/>
<path fill-rule="evenodd" clip-rule="evenodd" d="M226.605 49.4919C229.487 49.4919 231.824 47.3487 231.824 44.7049C231.824 42.0612 229.487 39.918 226.605 39.918C223.723 39.918 221.387 42.0612 221.387 44.7049C221.387 47.3487 223.723 49.4919 226.605 49.4919Z" fill="white"/>
<path fill-rule="evenodd" clip-rule="evenodd" d="M226.601 47.7019C228.402 47.7019 229.863 46.3625 229.863 44.7101C229.863 43.0578 228.402 41.7183 226.601 41.7183C224.8 41.7183 223.34 43.0578 223.34 44.7101C223.34 46.3625 224.8 47.7019 226.601 47.7019Z" fill="white"/>
<path opacity="0.4" fill-rule="evenodd" clip-rule="evenodd" d="M226.607 44.1134C226.967 44.1134 227.259 43.8453 227.259 43.5145C227.259 43.1837 226.967 42.9155 226.607 42.9155C226.246 42.9155 225.954 43.1837 225.954 43.5145C225.954 43.8453 226.246 44.1134 226.607 44.1134Z" fill="white"/>
<path fill-rule="evenodd" clip-rule="evenodd" d="M182.901 44.7106C182.901 43.7192 183.705 42.9155 184.696 42.9155H213.067C214.059 42.9155 214.863 43.7192 214.863 44.7106C214.863 45.702 214.059 46.5057 213.067 46.5057H184.696C183.705 46.5057 182.901 45.702 182.901 44.7106Z" fill="white"/>
</g>
<rect x="159.884" y="121.563" width="136" height="8" rx="4" fill="#F4F3F0"/>
<rect x="159.884" y="137.563" width="136" height="8" rx="4" fill="#F4F3F0"/>
<rect x="159.884" y="153.563" width="90.1791" height="8" rx="4" fill="#F4F3F0"/>
<circle cx="123.884" cy="141.563" r="28" fill="#F4F3F0"/>
<path fill-rule="evenodd" clip-rule="evenodd" d="M133.171 147.709L131.607 146.145C130.825 145.364 129.559 145.364 128.779 146.145L127.549 147.375C127.275 147.649 126.859 147.741 126.504 147.585C124.723 146.805 122.963 145.623 121.393 144.053C119.831 142.491 118.652 140.739 117.871 138.964C117.708 138.597 117.803 138.167 118.087 137.883L119.188 136.781C120.083 135.887 120.083 134.621 119.301 133.84L117.737 132.276C116.696 131.235 115.008 131.235 113.967 132.276L113.097 133.144C112.109 134.132 111.697 135.557 111.964 136.971C112.623 140.455 114.647 144.269 117.912 147.535C121.177 150.8 124.992 152.824 128.476 153.483C129.889 153.749 131.315 153.337 132.303 152.349L133.171 151.481C134.212 150.44 134.212 148.752 133.171 147.709V147.709Z" stroke="#DBD4D8" stroke-width="2" stroke-linecap="round" stroke-linejoin="round"/>
<path d="M125.217 134.884C126.592 134.865 127.973 135.374 129.022 136.424" stroke="#DBD4D8" stroke-width="2" stroke-linecap="round" stroke-linejoin="round"/>
<path d="M132.793 132.653C130.701 130.561 127.958 129.515 125.217 129.515" stroke="#DBD4D8" stroke-width="2" stroke-linecap="round" stroke-linejoin="round"/>
<path d="M130.562 140.23C130.581 138.855 130.072 137.474 129.022 136.424" stroke="#DBD4D8" stroke-width="2" stroke-linecap="round" stroke-linejoin="round"/>
<path d="M132.793 132.653C134.885 134.745 135.932 137.488 135.932 140.229" stroke="#DBD4D8" stroke-width="2" stroke-linecap="round" stroke-linejoin="round"/>
<rect x="159.884" y="207.563" width="136" height="8" rx="4" fill="#F4F3F0"/>
<rect x="159.884" y="223.563" width="136" height="8" rx="4" fill="#F4F3F0"/>
<rect x="159.884" y="239.563" width="90.1791" height="8" rx="4" fill="#F4F3F0"/>
<circle cx="123.884" cy="227.563" r="28" fill="#F4F3F0"/>
<path d="M127.759 239.574H122.557C116.663 239.574 111.885 234.797 111.885 228.903V226.236C111.885 220.342 116.663 215.564 122.557 215.564H125.224C128.055 215.564 130.769 216.689 132.77 218.69C134.771 220.691 135.895 223.405 135.895 226.236V229.57C135.895 231.78 134.104 233.572 131.894 233.572H131.76C129.55 233.572 127.759 231.78 127.759 229.57V227.269" stroke="#DBD4D8" stroke-width="2" stroke-linecap="round" stroke-linejoin="round"/>
<path d="M120.256 222.843L120.656 222.442C121.218 221.882 121.98 221.567 122.774 221.567H124.757C126.415 221.567 127.759 222.911 127.759 224.569V230.571C127.759 232.229 126.415 233.572 124.757 233.572H122.506C120.766 233.572 119.356 232.161 119.355 230.422V230.422C119.356 228.682 120.766 227.272 122.506 227.271H127.759" stroke="#DBD4D8" stroke-width="2" stroke-linecap="round" stroke-linejoin="round"/>
<rect x="159.884" y="293.563" width="136" height="8" rx="4" fill="#F4F3F0"/>
<rect x="159.884" y="309.563" width="136" height="8" rx="4" fill="#F4F3F0"/>
<rect x="159.884" y="325.563" width="90.1791" height="8" rx="4" fill="#F4F3F0"/>
<circle cx="123.884" cy="313.563" r="28" fill="#F4F3F0"/>
<path fill-rule="evenodd" clip-rule="evenodd" d="M128.382 313.854L134.39 309.78C135.325 309.148 135.884 308.094 135.884 306.966V306.966C135.884 305.086 134.361 303.563 132.482 303.563H115.305C113.426 303.563 111.904 305.086 111.904 306.964V306.964C111.904 308.092 112.462 309.147 113.397 309.78L119.405 313.854C122.116 315.691 125.672 315.691 128.382 313.854V313.854Z" stroke="#DBD4D8" stroke-width="2" stroke-linecap="round" stroke-linejoin="round"/>
<path d="M111.884 306.964V319.563C111.884 321.772 113.674 323.563 115.884 323.563H131.884C134.093 323.563 135.884 321.772 135.884 319.563V306.966" stroke="#DBD4D8" stroke-width="2" stroke-linecap="round" stroke-linejoin="round"/>
<rect x="159.884" y="379.563" width="136" height="8" rx="4" fill="#F4F3F0"/>
<rect x="159.884" y="395.563" width="136" height="8" rx="4" fill="#F4F3F0"/>
<rect x="159.884" y="411.563" width="90.1791" height="8" rx="4" fill="#F4F3F0"/>
<circle cx="123.884" cy="399.563" r="28" fill="#F4F3F0"/>
<path fill-rule="evenodd" clip-rule="evenodd" d="M123.884 400.896V400.896C121.674 400.896 119.884 399.106 119.884 396.896V396.896C119.884 394.687 121.674 392.896 123.884 392.896V392.896C126.093 392.896 127.884 394.687 127.884 396.896V396.896C127.884 399.106 126.093 400.896 123.884 400.896Z" stroke="#DBD4D8" stroke-width="2" stroke-linecap="round" stroke-linejoin="round"/>
<path fill-rule="evenodd" clip-rule="evenodd" d="M123.884 411.563C123.884 411.563 114.55 403.896 114.55 396.896C114.55 391.742 118.729 387.563 123.884 387.563C129.038 387.563 133.217 391.742 133.217 396.896C133.217 403.896 123.884 411.563 123.884 411.563Z" stroke="#DBD4D8" stroke-width="2" stroke-linecap="round" stroke-linejoin="round"/>
<path d="M362.884 48.563C362.884 43.0402 358.407 38.563 352.884 38.563H255.884C250.361 38.563 245.884 43.0401 245.884 48.563V99.0143C245.884 100.572 247.587 101.532 248.92 100.725L266.478 90.0954C268.04 89.1498 269.831 88.6499 271.657 88.6499H352.884C358.407 88.6499 362.884 84.1728 362.884 78.6499V48.563Z" fill="url(#paint0_linear_99_611)"/>
<path d="M264.47 64.2661C264.47 66.0786 264.946 67.5005 265.907 68.5474C266.86 69.5864 268.157 70.1021 269.806 70.1021C271.189 70.1021 272.329 69.7349 273.228 68.9927C274.126 68.2505 274.634 67.2505 274.767 65.9927H272.47C272.345 66.6567 272.048 67.188 271.571 67.5708C271.095 67.9536 270.509 68.1489 269.814 68.1489C268.907 68.1489 268.189 67.8052 267.665 67.1021C267.142 66.4067 266.876 65.4614 266.876 64.2583C266.876 63.0786 267.142 62.1333 267.673 61.438C268.204 60.7427 268.915 60.3911 269.806 60.3911C270.493 60.3911 271.079 60.6021 271.571 61.0161C272.056 61.4302 272.353 61.9849 272.462 62.6802H274.759C274.704 61.8521 274.454 61.1177 274.009 60.4692C273.564 59.8208 272.978 59.3208 272.251 58.9692C271.517 58.6177 270.704 58.438 269.806 58.438C268.165 58.438 266.868 58.9536 265.907 59.9927C264.946 61.0317 264.47 62.4614 264.47 64.2661ZM275.728 65.7114C275.728 67.0786 276.103 68.1489 276.845 68.9224C277.587 69.6958 278.603 70.0864 279.876 70.0864C281.15 70.0864 282.165 69.7036 282.907 68.9302C283.65 68.1567 284.025 67.0786 284.025 65.7114C284.025 64.3599 283.65 63.2974 282.9 62.5161C282.15 61.7427 281.142 61.3521 279.876 61.3521C278.618 61.3521 277.61 61.7427 276.86 62.5161C276.103 63.2974 275.728 64.3599 275.728 65.7114ZM278.04 65.7192C278.04 64.8989 278.204 64.2505 278.54 63.7896C278.868 63.3286 279.314 63.0942 279.876 63.0942C280.439 63.0942 280.884 63.3286 281.212 63.7896C281.54 64.2505 281.704 64.8989 281.704 65.7192C281.704 66.5552 281.54 67.1958 281.212 67.6567C280.884 68.1177 280.439 68.3442 279.876 68.3442C279.306 68.3442 278.86 68.1177 278.532 67.6567C278.204 67.1958 278.04 66.5552 278.04 65.7192ZM287.485 69.9067V65.1021C287.485 64.5552 287.642 64.1099 287.946 63.7739C288.251 63.438 288.65 63.2661 289.157 63.2661C290.165 63.2661 290.696 63.8833 290.696 64.9849V69.9067H292.978V64.5083C292.978 63.5239 292.728 62.7583 292.22 62.2036C291.712 61.6489 291.001 61.3755 290.071 61.3755C288.798 61.3755 287.915 61.9614 287.454 63.0239H287.407V61.5317H285.204V69.9067H287.485ZM295.032 63.2505V67.6489C295.032 68.4692 295.243 69.0552 295.665 69.4067C296.079 69.7583 296.782 69.938 297.767 69.938C298.228 69.938 298.587 69.9067 298.853 69.8442V68.1646C298.696 68.188 298.509 68.2036 298.298 68.2036C297.642 68.2036 297.314 67.8911 297.314 67.2583V63.2505H298.86V61.5317H297.314V59.6021H295.032V61.5317H293.853V63.2505H295.032ZM299.712 67.5005C299.712 68.2427 299.978 68.8521 300.509 69.3286C301.04 69.8052 301.712 70.0396 302.517 70.0396C303.056 70.0396 303.556 69.9146 304.025 69.6646C304.493 69.4067 304.845 69.063 305.071 68.6255H305.118V69.9067H307.321V64.1489C307.321 63.3052 307.001 62.6255 306.353 62.1177C305.704 61.6099 304.845 61.3521 303.775 61.3521C302.681 61.3521 301.806 61.6021 301.142 62.1021C300.478 62.6099 300.126 63.2739 300.087 64.0942H302.173C302.29 63.4614 302.837 63.0552 303.673 63.0552C304.54 63.0552 305.079 63.5161 305.079 64.2896V64.8442L302.97 64.9692C300.876 65.0942 299.712 65.9771 299.712 67.5005ZM301.978 67.3755C301.978 66.7817 302.462 66.3989 303.314 66.3364L305.079 66.2271V66.8364C305.079 67.2817 304.907 67.6567 304.556 67.9536C304.204 68.2427 303.775 68.3911 303.267 68.3911C302.485 68.3911 301.978 68.0005 301.978 67.3755ZM308.493 65.7114C308.493 67.0708 308.86 68.1411 309.603 68.9224C310.345 69.6958 311.345 70.0864 312.618 70.0864C313.72 70.0864 314.61 69.7896 315.298 69.2036C315.985 68.6177 316.36 67.8286 316.415 66.8364H314.29C314.142 67.7505 313.548 68.2974 312.642 68.2974C312.071 68.2974 311.618 68.0708 311.298 67.6177C310.97 67.1646 310.806 66.5317 310.806 65.7114C310.806 64.9067 310.97 64.2817 311.298 63.8208C311.618 63.3677 312.064 63.1411 312.634 63.1411C313.548 63.1411 314.157 63.7427 314.29 64.6489H316.407C316.353 63.6802 315.985 62.8911 315.306 62.2739C314.618 61.6567 313.72 61.3521 312.603 61.3521C311.345 61.3521 310.353 61.7427 309.61 62.5239C308.868 63.313 308.493 64.3755 308.493 65.7114ZM318.126 63.2505V67.6489C318.126 68.4692 318.337 69.0552 318.759 69.4067C319.173 69.7583 319.876 69.938 320.86 69.938C321.321 69.938 321.681 69.9067 321.946 69.8442V68.1646C321.79 68.188 321.603 68.2036 321.392 68.2036C320.735 68.2036 320.407 67.8911 320.407 67.2583V63.2505H321.954V61.5317H320.407V59.6021H318.126V61.5317H316.946V63.2505H318.126ZM326.571 65.9224C326.571 67.1724 327.001 68.1802 327.86 68.9536C328.712 69.7192 329.86 70.1021 331.298 70.1021C332.728 70.1021 333.876 69.7192 334.735 68.9536C335.587 68.1802 336.017 67.1724 336.017 65.9224V58.6333H333.657V65.688C333.657 66.4224 333.454 67.0005 333.04 67.4302C332.626 67.8677 332.04 68.0786 331.298 68.0786C330.548 68.0786 329.97 67.8677 329.556 67.4302C329.142 67.0005 328.931 66.4224 328.931 65.688V58.6333H326.571V65.9224ZM337.353 67.3599C337.431 68.1958 337.798 68.8599 338.462 69.3521C339.118 69.8442 340.017 70.0864 341.15 70.0864C342.235 70.0864 343.118 69.8364 343.798 69.3364C344.478 68.8286 344.814 68.1724 344.814 67.3521C344.814 66.7349 344.618 66.2505 344.235 65.8833C343.845 65.5239 343.212 65.2505 342.345 65.0708L340.915 64.7661C340.095 64.5864 339.759 64.3052 339.759 63.8677C339.759 63.313 340.282 62.9536 341.071 62.9536C341.892 62.9536 342.423 63.3989 342.493 64.0942H344.595C344.571 63.2661 344.243 62.6021 343.61 62.1021C342.978 61.6021 342.134 61.3521 341.071 61.3521C340.009 61.3521 339.157 61.5942 338.525 62.0708C337.884 62.5552 337.564 63.1958 337.564 63.9927C337.564 65.2583 338.376 66.063 340.001 66.4067L341.431 66.7036C342.243 66.8911 342.54 67.1411 342.54 67.5864C342.54 68.1411 342.001 68.4849 341.15 68.4849C340.251 68.4849 339.728 68.1099 339.579 67.3599H337.353Z" fill="#4AAAC5"/>
<g filter="url(#filter0_b_99_611)">
<rect opacity="0.3" y="19.3535" width="80" height="75" rx="20" transform="rotate(-14 0 19.3535)" fill="#D6D6D3"/>
<path d="M60.5895 37.8393C61.3764 39.1141 61.9645 40.5012 62.3335 41.9531C64.3385 49.9947 59.4449 58.139 51.4033 60.144C43.3618 62.149 35.2175 57.2554 33.2125 49.2138C31.2075 41.1723 36.1011 33.028 44.1427 31.023C45.5978 30.6671 47.0987 30.5351 48.5937 30.6315" stroke="#FE82F3" stroke-width="2.5" stroke-linecap="round" stroke-linejoin="round"/>
<path d="M59.2171 29.4543L56.8027 33.4725L54.2257 31.924" stroke="#FE82F3" stroke-width="2.5" stroke-linecap="round" stroke-linejoin="round"/>
<path d="M40.1939 45.2841C39.8656 43.9671 40.667 42.6332 41.9841 42.3048C43.3011 41.9765 44.6349 42.7779 44.9633 44.095C45.7063 47.075 40.9369 48.2642 41.8171 51.7943L46.5865 50.6051" stroke="#FE82F3" stroke-width="2.5" stroke-linecap="round" stroke-linejoin="round"/>
<path d="M54.5965 48.6082L52.5845 40.5385C52.4945 40.1702 52.171 39.9064 51.7922 39.8923C51.4134 39.8781 51.0712 40.1171 50.954 40.4776C50.3486 42.371 49.7063 44.509 49.1604 46.3927C49.0699 46.7077 49.1549 47.0471 49.3832 47.2822C49.6115 47.5174 49.9481 47.6124 50.2657 47.5314L55.4412 46.241" stroke="#FE82F3" stroke-width="2.5" stroke-linecap="round" stroke-linejoin="round"/>
</g>
<g filter="url(#filter1_b_99_611)">
<rect opacity="0.3" x="29.9073" y="335" width="80" height="75" rx="20" transform="rotate(10 29.9073 335)" fill="#D6D6D3"/>
<path fill-rule="evenodd" clip-rule="evenodd" d="M72.743 389.602L71.1017 389.313C70.1956 389.153 69.59 388.288 69.7497 387.382L71.1968 379.176C71.3565 378.27 72.2215 377.664 73.1276 377.824L74.7689 378.113C76.5826 378.433 77.7926 380.161 77.4728 381.975L76.6045 386.899C76.2847 388.712 74.5567 389.922 72.743 389.602Z" stroke="#4AAAC5" stroke-width="2.5" stroke-linecap="round" stroke-linejoin="round"/>
<path fill-rule="evenodd" clip-rule="evenodd" d="M51.4057 385.84L49.7644 385.551C47.9507 385.231 46.7407 383.503 47.0605 381.689L47.9287 376.765C48.2485 374.951 49.9766 373.741 51.7903 374.061L53.4316 374.351C54.3376 374.51 54.9433 375.375 54.7835 376.281L53.3365 384.488C53.1767 385.394 52.3117 386 51.4057 385.84Z" stroke="#4AAAC5" stroke-width="2.5" stroke-linecap="round" stroke-linejoin="round"/>
<path d="M73.9487 377.968L74.0934 377.147C75.1324 371.255 71.1983 365.636 65.3058 364.597V364.597C59.4134 363.558 53.7949 367.492 52.7559 373.385L52.6112 374.205" stroke="#4AAAC5" stroke-width="2.5" stroke-linecap="round" stroke-linejoin="round"/>
<path fill-rule="evenodd" clip-rule="evenodd" d="M61.0498 394.732L58.9981 394.37C57.8655 394.171 57.1085 393.089 57.3082 391.957V391.957C57.5079 390.824 58.5891 390.067 59.7216 390.267L61.7733 390.629C62.9058 390.829 63.6629 391.91 63.4632 393.042V393.042C63.2635 394.175 62.1823 394.932 61.0498 394.732Z" stroke="#4AAAC5" stroke-width="2.5" stroke-linecap="round" stroke-linejoin="round"/>
<path d="M63.4633 393.042L66.9512 393.657C68.7649 393.977 70.4929 392.767 70.8127 390.953L71.1021 389.312" stroke="#4AAAC5" stroke-width="2.5" stroke-linecap="round" stroke-linejoin="round"/>
</g>
<g filter="url(#filter2_b_99_611)">
<path opacity="0.3" d="M170.884 409C170.884 397.954 179.838 389 190.884 389H378.884C389.929 389 398.884 397.954 398.884 409V457.595C398.884 468.595 390.001 477.53 379.002 477.595L191.415 478.703C185.913 478.735 180.667 481.033 176.912 485.056L172.615 489.66C171.996 490.324 170.884 489.886 170.884 488.978V409Z" fill="#D6D6D3"/>
<rect x="191.302" y="411.12" width="173.552" height="6" rx="3" fill="#D6D4CE"/>
<rect x="191.302" y="429.12" width="149.731" height="6" rx="3" fill="#D6D4CE"/>
<rect x="190.884" y="447.12" width="90.1791" height="6" rx="3" fill="#D6D4CE"/>
</g>
<defs>
<filter id="filter0_b_99_611" x="-7.76038" y="-7.76074" width="111.289" height="107.647" filterUnits="userSpaceOnUse" color-interpolation-filters="sRGB">
<feFlood flood-opacity="0" result="BackgroundImageFix"/>
<feGaussianBlur in="BackgroundImage" stdDeviation="6"/>
<feComposite in2="SourceAlpha" operator="in" result="effect1_backgroundBlur_99_611"/>
<feBlend mode="normal" in="SourceGraphic" in2="effect1_backgroundBlur_99_611" result="shape"/>
</filter>
<filter id="filter1_b_99_611" x="8.04956" y="326.166" width="109.477" height="105.42" filterUnits="userSpaceOnUse" color-interpolation-filters="sRGB">
<feFlood flood-opacity="0" result="BackgroundImageFix"/>
<feGaussianBlur in="BackgroundImage" stdDeviation="6"/>
<feComposite in2="SourceAlpha" operator="in" result="effect1_backgroundBlur_99_611"/>
<feBlend mode="normal" in="SourceGraphic" in2="effect1_backgroundBlur_99_611" result="shape"/>
</filter>
<filter id="filter2_b_99_611" x="158.884" y="377" width="252" height="124.98" filterUnits="userSpaceOnUse" color-interpolation-filters="sRGB">
<feFlood flood-opacity="0" result="BackgroundImageFix"/>
<feGaussianBlur in="BackgroundImage" stdDeviation="6"/>
<feComposite in2="SourceAlpha" operator="in" result="effect1_backgroundBlur_99_611"/>
<feBlend mode="normal" in="SourceGraphic" in2="effect1_backgroundBlur_99_611" result="shape"/>
</filter>
<linearGradient id="paint0_linear_99_611" x1="362.884" y1="40.6499" x2="245.93" y2="95.0105" gradientUnits="userSpaceOnUse">
<stop stop-color="#D9ECEF"/>
<stop offset="1" stop-color="#C5DADE"/>
</linearGradient>
</defs>
</svg>
