<svg width="56" height="53" viewBox="0 0 56 53" fill="none" xmlns="http://www.w3.org/2000/svg">
<path d="M7.54949 44.7698C12.3888 47.7006 16.6425 44.5405 21.9248 46.5667C25.7452 48.0322 26.8251 51.7108 30.9094 51.9575C34.3805 52.1671 36.9262 51.5083 39.295 48.9626C42.8006 45.1952 40.5117 40.7854 39.295 35.7852C37.577 28.7248 35.7869 23.0848 29.1125 20.2119C22.0745 17.1826 15.9746 19.6762 9.94538 24.4047C4.83132 28.4156 -0.817295 32.7311 1.55977 38.7801C2.76966 41.8589 4.71994 43.0561 7.54949 44.7698Z" fill="#F4F3F0" stroke="#F4F3F0"/>
<circle cx="8.74748" cy="11.2272" r="7.18767" fill="#F4F3F0"/>
<circle cx="42.29" cy="17.217" r="7.18767" fill="#F4F3F0"/>
<circle cx="48.8786" cy="32.1915" r="6.5887" fill="#F4F3F0"/>
<circle cx="26.7167" cy="8.83141" r="8.38561" fill="#F4F3F0"/>
</svg>
