<svg width="24" height="24" viewBox="0 0 24 24" fill="none" xmlns="http://www.w3.org/2000/svg">
<path d="M14.9 21H11C6.58172 21 3 17.4183 3 13V11C3 6.58172 6.58172 3 11 3H13C15.1217 3 17.1566 3.84285 18.6569 5.34315C20.1571 6.84344 21 8.87827 21 11V13.5C21 15.1569 19.6569 16.5 18 16.5H17.9C16.2431 16.5 14.9 15.1569 14.9 13.5V11.775" stroke="#563746" stroke-width="2" stroke-linecap="round" stroke-linejoin="round"/>
<path d="M9.2751 8.456L9.5751 8.156C9.99675 7.73579 10.5678 7.49988 11.1631 7.5H12.6501C13.8927 7.5 14.9001 8.50736 14.9001 9.75V14.25C14.9001 15.4926 13.8927 16.5 12.6501 16.5H10.9621C9.65783 16.4994 8.60065 15.4423 8.6001 14.138V14.138C8.60065 12.8337 9.65783 11.7766 10.9621 11.776H14.9001" stroke="#563746" stroke-width="2" stroke-linecap="round" stroke-linejoin="round"/>
</svg>
