<svg width="502" height="213" viewBox="0 0 502 213" fill="none" xmlns="http://www.w3.org/2000/svg">
<path d="M380.884 152.019C376.891 151.268 372.778 151.441 368.863 152.526C364.947 153.611 361.331 155.578 358.293 158.276C355.256 160.975 352.876 164.334 351.338 168.095C349.8 171.855 349.143 175.919 349.419 179.973L314.093 188.173C312.808 188.472 311.694 189.268 310.997 190.387C310.299 191.506 310.075 192.856 310.372 194.141L310.671 195.428C310.97 196.713 311.767 197.826 312.886 198.523C314.006 199.22 315.357 199.444 316.641 199.145L352.57 190.807C354.707 194.753 357.808 198.093 361.584 200.518C365.361 202.943 369.689 204.372 374.166 204.673C378.644 204.974 383.125 204.136 387.191 202.239C391.258 200.341 394.778 197.446 397.424 193.821C400.07 190.196 401.755 185.961 402.323 181.51C402.891 177.058 402.323 172.536 400.672 168.363C399.021 164.19 396.341 160.503 392.881 157.645C389.421 154.788 385.294 152.852 380.884 152.019ZM393.619 181.51C392.966 184.964 391.304 188.146 388.843 190.655C386.381 193.164 383.231 194.887 379.791 195.605C376.35 196.324 372.774 196.006 369.514 194.692C366.254 193.378 363.458 191.127 361.477 188.223C359.497 185.319 358.422 181.894 358.389 178.379C358.355 174.865 359.365 171.419 361.289 168.479C363.214 165.538 365.968 163.234 369.202 161.858C372.436 160.482 376.006 160.096 379.459 160.749C384.09 161.625 388.183 164.304 390.839 168.197C393.494 172.091 394.494 176.88 393.619 181.51Z" fill="#563746"/>
<path d="M341.125 173.858C338.96 165.212 326.087 159.673 326.087 159.673C333.474 147.755 332.82 132.919 327.838 127.104C321.161 112.817 301.47 106.193 274.632 100.879C270.368 100.034 248.692 96.6859 242.809 96.4973C219.716 93.9627 182.078 83.5146 165.541 93.8022C166.859 69.7998 155.966 46.7239 136.625 40.227C108.539 30.7928 97.4798 46.4451 93.7173 60.3909C89.9042 74.4887 97.7276 90.5382 105.757 71.8809C113.836 53.1026 123.997 54.1559 138.269 62.6917C152.542 71.2276 143.62 103.028 143.479 124.552C143.403 137 146.174 147.58 150.951 154.815C143.082 167.302 126.605 167.324 127.942 176.454C129.525 187.255 136.233 208.063 136.721 212.42L173.652 212.195C173.652 212.195 176.792 201.969 169.709 198.612C162.627 195.255 157.535 197.874 157.535 197.874L156.879 189.792C156.639 186.88 159.011 184.25 162.582 183.467C166.243 182.67 171.196 181.588 176.626 180.428C177.377 180.804 178.157 181.158 178.966 181.49C177.536 185.714 176.463 189.125 176.291 190.378C175.705 194.667 183.613 199.423 189.64 203.504C195.666 207.585 200.949 212.04 200.949 212.04H245.214C245.214 212.04 245.245 195.793 233.386 196.269L220.274 197.052L211.795 190.992C210.33 189.964 209.57 188.578 209.581 187.179C211.233 187.254 212.939 187.308 214.698 187.342C227.686 187.573 239.531 187.428 250.233 186.908C254.668 196.202 257.873 204.312 258.022 206.678C258.191 209.336 258.146 210.789 260.824 211.555C263.55 212.336 296.027 211.513 296.027 211.513C296.027 211.513 296.756 205.599 295.906 203.769C294.391 200.505 285.044 194.056 282.168 194.056C282.168 194.056 281.419 189.032 280.577 184.131C286.425 183.273 291.682 182.265 296.348 181.107C297.17 182.442 298.077 183.385 299.023 183.841C308.407 188.347 322.209 178.491 324.011 192.726C325.814 206.962 337.47 205.813 342.007 200.817C346.544 195.821 345.209 190.155 341.125 173.858Z" fill="#FFA500"/>
<path d="M293.039 211.139C293.039 211.139 294.503 203.383 283.745 197.641M286.804 211.505C286.804 211.505 287.536 204.972 280.941 200.452M339.788 201.094C339.664 199.872 340.306 190.863 336.521 185.731M335.144 203.169C335.144 203.169 331.021 191.84 331.263 185.731M239.165 211.759C239.165 211.759 239.613 200.48 230.249 199.421M234.687 211.871C234.687 211.871 234.645 204.91 227.084 202.223M170.639 211.759C170.639 211.759 172.224 203.932 168.563 201.367C166.437 199.847 163.849 199.113 161.241 199.291M165.998 211.759C165.998 211.759 168.318 204.797 161.968 203.82" stroke="#563746" stroke-width="1.68971" stroke-linecap="round" stroke-linejoin="round"/>
<path d="M366.26 80.5239C367.766 88.322 365.961 97.5675 356.445 106.917C346.307 116.918 332.662 120.567 319.835 121.128C319.187 137.726 318.545 153.956 318.545 153.956C318.545 153.956 357.146 158.8 358.816 143.026C359.661 134.905 356.516 127.47 353.254 122.167L365.877 107.889C375.469 96.8578 372.199 84.0977 366.26 80.5239Z" fill="#4AAAC5"/>
<path d="M332.489 129.57L299.498 128.879C297.765 128.842 296.33 130.219 296.293 131.952L296.199 136.446C296.163 138.18 297.539 139.615 299.273 139.651L332.263 140.342C333.997 140.378 335.432 139.002 335.468 137.269L335.562 132.775C335.598 131.041 334.222 129.606 332.489 129.57Z" stroke="#563746" stroke-width="1.68971" stroke-linecap="round" stroke-linejoin="round"/>
<path d="M334.203 143.012C338.808 143.012 342.542 139.279 342.542 134.673C342.542 130.068 338.808 126.334 334.203 126.334C329.598 126.334 325.864 130.068 325.864 134.673C325.864 139.279 329.598 143.012 334.203 143.012Z" fill="white"/>
<path d="M355.192 61.938L333.93 63.4813C324.724 63.9459 315.495 62.0309 307.401 58.5332C305.65 57.7757 300.834 52.3376 300.834 52.3376L300.752 52.1715C296.097 42.25 290.394 31.7794 288.06 30.9064C282.27 28.7408 273.618 54.1315 271.137 61.8535C246.09 79.2491 273.061 111.325 287.142 116.488C300.223 121.275 335.704 127.417 356.457 106.941C376.381 87.3569 362.517 68.2294 355.192 61.938Z" fill="#FFA500"/>
<path d="M289.541 35.3101C289.541 35.3101 283.176 38.1685 281.332 60.6727" stroke="#563746" stroke-width="1.68971" stroke-linecap="round" stroke-linejoin="round"/>
<path d="M314.118 84.2532C315.776 84.2532 317.12 82.1312 317.12 79.5136C317.12 76.8959 315.776 74.7739 314.118 74.7739C312.46 74.7739 311.116 76.8959 311.116 79.5136C311.116 82.1312 312.46 84.2532 314.118 84.2532Z" fill="#563746"/>
<path d="M340.155 79.0082C341.812 78.9356 343.062 76.7567 342.947 74.1416C342.832 71.5265 341.397 69.4654 339.74 69.538C338.084 69.6106 336.834 71.7894 336.949 74.4045C337.063 77.0197 338.499 79.0808 340.155 79.0082Z" fill="#563746"/>
<path d="M324.208 89.4036C326.957 95.7738 328.965 89.4909 329.393 85.9819C329.849 89.2825 332.24 94.5769 334.403 90.1696" stroke="#563746" stroke-width="1.68971" stroke-linecap="round" stroke-linejoin="round"/>
<path d="M334.451 82.8913L330.443 86.3749C330.134 86.6137 329.751 86.7378 329.36 86.726C328.969 86.7142 328.595 86.5672 328.3 86.3102L324.529 82.9307C323.625 82.1197 324.203 80.8242 325.478 80.8073L333.26 80.7088C334.606 80.6862 335.372 82.0887 334.451 82.8913Z" fill="#563746"/>
<path d="M318.832 55.8213C318.832 55.8213 334.631 27.3215 340.768 31.2473C343.423 32.937 348.129 50.7916 350.452 62.8308" fill="#FFA500"/>
<path d="M340.351 33.8804C340.351 33.8804 327.83 49.1666 330.565 59.0965" stroke="#563746" stroke-width="1.68971" stroke-linecap="round" stroke-linejoin="round"/>
<path d="M302.498 56.5681L319.511 52.7747L317.788 25.3027C317.788 25.3027 301.992 26.0941 294.258 39.5442" fill="#563746"/>
<path d="M369.535 54.6328C366.488 53.3374 347.18 51.5773 339.588 50.9239C339.379 46.2293 333.074 26.6568 319.294 26.7047C301.13 26.7554 303.008 43.6018 302.555 56.4943H302.614V56.5591C302.614 56.5591 305.664 57.7813 307.401 58.5304C315.495 62.0281 324.724 63.9431 333.93 63.4785L368.718 60.9439C369.71 60.896 370.506 60.3131 370.625 59.5555L371.047 56.8689C371.18 55.9677 370.585 55.0778 369.535 54.6328Z" fill="#4AAAC5"/>
<path d="M308.246 46.3509C308.097 46.3509 307.954 46.2915 307.848 46.1859C307.742 46.0803 307.683 45.937 307.683 45.7876C307.681 45.6703 307.718 45.5556 307.787 45.461L312.783 38.2431C312.831 38.1688 312.899 38.1086 312.978 38.0685C313.057 38.0285 313.145 38.01 313.234 38.015C313.383 38.015 313.526 38.0743 313.632 38.1799C313.738 38.2855 313.797 38.4288 313.797 38.5782V45.2413H314.906C315.056 45.2413 315.199 45.3006 315.305 45.4063C315.41 45.5119 315.47 45.6552 315.47 45.8045C315.47 45.8774 315.456 45.9496 315.428 46.0168C315.4 46.0841 315.358 46.145 315.306 46.196C315.255 46.2489 315.194 46.2908 315.126 46.3189C315.058 46.347 314.986 46.3608 314.912 46.3593H313.802V48.5813C313.804 48.6543 313.79 48.7267 313.762 48.794C313.733 48.8613 313.692 48.9222 313.639 48.9727C313.534 49.0743 313.394 49.131 313.248 49.131C313.102 49.131 312.961 49.0743 312.856 48.9727C312.804 48.9222 312.762 48.8613 312.734 48.794C312.706 48.7267 312.692 48.6543 312.693 48.5813V46.3593L308.246 46.3509ZM312.687 45.2413V40.3552L309.308 45.2413H312.687Z" fill="white"/>
<path d="M316.571 43.5742C316.571 41.355 317.026 39.7752 317.937 38.8346C318.459 38.3154 319.165 38.0239 319.901 38.0239C320.637 38.0239 321.343 38.3154 321.865 38.8346C322.778 39.7733 323.234 41.3532 323.234 43.5742C323.234 45.7952 322.778 47.3751 321.865 48.3138C321.607 48.5719 321.301 48.7767 320.964 48.9164C320.627 49.0561 320.266 49.128 319.901 49.128C319.536 49.128 319.175 49.0561 318.838 48.9164C318.501 48.7767 318.195 48.5719 317.937 48.3138C317.028 47.377 316.573 45.7971 316.571 43.5742ZM319.902 39.1274C319.682 39.1242 319.464 39.1663 319.261 39.251C319.058 39.3358 318.875 39.4615 318.722 39.6203C318.026 40.4032 317.678 41.7174 317.68 43.5629C317.682 45.4085 318.03 46.7227 318.722 47.5056C318.877 47.6618 319.06 47.7857 319.263 47.8704C319.465 47.955 319.683 47.9986 319.902 47.9986C320.122 47.9986 320.339 47.955 320.542 47.8704C320.744 47.7857 320.928 47.6618 321.082 47.5056C321.775 46.7246 322.121 45.4104 322.121 43.5629C322.121 41.7155 321.775 40.4013 321.082 39.6203C320.93 39.4619 320.746 39.3365 320.543 39.2518C320.34 39.167 320.122 39.1247 319.902 39.1274Z" fill="white"/>
<path d="M324.898 46.3507C324.749 46.3507 324.606 46.2914 324.5 46.1857C324.394 46.0801 324.335 45.9368 324.335 45.7875C324.333 45.6701 324.37 45.5554 324.439 45.4608L329.435 38.2429C329.484 38.169 329.551 38.1091 329.63 38.0691C329.709 38.0291 329.797 38.0104 329.886 38.0148C330.035 38.0148 330.178 38.0741 330.284 38.1798C330.39 38.2854 330.449 38.4286 330.449 38.578V45.2411H331.575C331.648 45.2401 331.721 45.254 331.788 45.2821C331.855 45.3102 331.916 45.3519 331.967 45.4045C332.068 45.5095 332.125 45.6498 332.125 45.7959C332.125 45.942 332.068 46.0823 331.967 46.1874C331.916 46.24 331.855 46.2816 331.788 46.3097C331.721 46.3378 331.648 46.3518 331.575 46.3507H330.449V48.5727C330.45 48.6456 330.436 48.718 330.408 48.7854C330.38 48.8527 330.338 48.9136 330.286 48.9641C330.181 49.0656 330.04 49.1224 329.894 49.1224C329.748 49.1224 329.608 49.0656 329.503 48.9641C329.45 48.9136 329.408 48.8527 329.38 48.7854C329.352 48.718 329.338 48.6456 329.339 48.5727V46.3507H324.898ZM329.339 45.2411V40.355L325.96 45.2411H329.339Z" fill="white"/>
<path d="M314.279 27.3245C318.327 27.3245 321.609 25.7257 321.609 23.7535C321.609 21.7814 318.327 20.1826 314.279 20.1826C310.23 20.1826 306.948 21.7814 306.948 23.7535C306.948 25.7257 310.23 27.3245 314.279 27.3245Z" fill="#563746"/>
<path d="M313.774 20.9089C317.019 20.9089 320.894 18.2786 320.353 12.1196C319.812 5.96055 327.897 1.24343 332.339 7.25036M313.493 20.8216C312.085 17.521 304.577 4.53837 296.99 5.87888C288.093 7.09829 313.493 20.8216 313.493 20.8216ZM313.526 20.6892C312.355 17.9547 308.905 5.97463 314.214 2.04041C320.226 -2.77245 313.526 20.6892 313.526 20.6892Z" stroke="#563746" stroke-width="1.68971" stroke-linecap="round" stroke-linejoin="round"/>
<path d="M313.817 20.1908C315.932 21.9453 319.877 22.3255 322.854 18.0223C325.831 13.7192 333.645 15.0147 333.291 21.3286" stroke="#563746" stroke-width="1.68971" stroke-linecap="round" stroke-linejoin="round"/>
<path d="M356.685 82.4955C356.685 82.4955 376.815 63.6101 400.473 77.9305M356.544 86.2326C356.544 86.2326 379.918 71.549 400.395 90.133" stroke="#563746" stroke-width="1.68971" stroke-linecap="round" stroke-linejoin="round"/>
<path d="M311.105 92.895L297.826 88.1272C266.95 76.7076 264.536 70.4782 264.956 67.7099C266.692 65.4387 268.784 63.4634 271.151 61.8606C272.244 58.4587 274.531 51.6294 277.251 45.2451C263.376 47.9515 252.204 56.7436 251.517 76.0176C251.517 76.0176 229.725 57.7941 190.594 67.141C184.117 68.6899 183.413 73.7534 184.523 80.0025C197.584 153.463 260.934 166.116 312.946 152.998C313.366 149.168 313.881 131.967 314.171 121.195H314.129L320.53 112.879C324.957 102.27 318.289 94.1229 311.105 92.895Z" fill="#4AAAC5"/>
<path d="M213.47 114.796C213.536 114.876 213.584 114.97 213.611 115.07C213.638 115.169 213.644 115.274 213.628 115.376C213.616 115.48 213.583 115.58 213.531 115.67C213.479 115.761 213.41 115.84 213.327 115.903C213.25 115.969 213.16 116.018 213.063 116.048C212.966 116.078 212.864 116.088 212.763 116.078C211.183 115.764 209.757 114.92 208.723 113.686C207.688 112.451 207.107 110.9 207.075 109.289C207.043 107.678 207.563 106.105 208.548 104.83C209.533 103.556 210.924 102.656 212.491 102.281C214.058 101.905 215.705 102.077 217.161 102.767C218.617 103.457 219.793 104.624 220.495 106.074C221.196 107.524 221.381 109.171 221.018 110.74C220.655 112.31 219.767 113.708 218.5 114.703C218.419 114.767 218.327 114.815 218.228 114.843C218.129 114.871 218.025 114.879 217.923 114.867C217.821 114.854 217.722 114.822 217.633 114.771C217.543 114.72 217.465 114.652 217.402 114.571L210.139 105.323C209.345 106.207 208.837 107.31 208.68 108.488C208.581 109.205 208.629 109.935 208.823 110.632C209.017 111.33 209.351 111.98 209.806 112.543C210.595 113.574 211.736 114.276 213.011 114.515C213.194 114.549 213.357 114.649 213.47 114.796ZM218.128 112.96C218.932 112.087 219.448 110.988 219.607 109.812C219.695 109.096 219.641 108.369 219.448 107.674C219.255 106.979 218.926 106.329 218.482 105.761C218.037 105.193 217.485 104.719 216.856 104.364C216.228 104.01 215.535 103.784 214.819 103.698C213.637 103.571 212.443 103.803 211.395 104.365L218.128 112.96ZM224.887 111.952C224.953 111.873 225.035 111.809 225.127 111.764C225.219 111.718 225.32 111.692 225.422 111.687C225.526 111.679 225.63 111.692 225.729 111.724C225.828 111.757 225.919 111.809 225.998 111.877C226.076 111.945 226.14 112.028 226.187 112.121C226.233 112.214 226.26 112.316 226.267 112.419C226.275 112.522 226.261 112.625 226.227 112.722C226.193 112.819 226.14 112.908 226.07 112.983L224.887 114.318C227.298 114.165 229.238 114.737 230.708 116.033C231.414 116.627 231.989 117.36 232.398 118.187C232.467 118.318 232.507 118.462 232.516 118.609C232.52 118.816 232.445 119.015 232.307 119.169C232.169 119.322 231.978 119.417 231.773 119.435C231.67 119.441 231.568 119.427 231.471 119.393C231.374 119.359 231.285 119.306 231.209 119.237C231.118 119.16 231.045 119.064 230.995 118.956C230.69 118.283 230.237 117.688 229.669 117.215C228.575 116.256 227.146 115.768 225.693 115.858C224.241 115.948 222.883 116.609 221.916 117.697L217.762 122.414C217.695 122.493 217.613 122.557 217.52 122.603C217.428 122.649 217.327 122.676 217.224 122.682C217.015 122.696 216.808 122.626 216.65 122.488C216.492 122.351 216.395 122.156 216.379 121.947C216.372 121.844 216.385 121.741 216.419 121.644C216.453 121.547 216.506 121.459 216.576 121.383L224.887 111.952Z" fill="white"/>
<path d="M233.933 119.74C233.989 119.654 234.063 119.58 234.149 119.523C234.235 119.467 234.332 119.428 234.434 119.41C234.535 119.391 234.639 119.391 234.74 119.413C234.84 119.434 234.936 119.475 235.02 119.534C235.105 119.592 235.178 119.666 235.234 119.752C235.291 119.838 235.329 119.934 235.349 120.035C235.368 120.136 235.367 120.24 235.345 120.341C235.324 120.441 235.284 120.537 235.225 120.621L234.223 122.091C236.594 121.643 238.59 121.971 240.21 123.077C240.986 123.578 241.651 124.233 242.162 125.003C242.247 125.124 242.305 125.263 242.331 125.409C242.358 125.562 242.339 125.719 242.277 125.862C242.215 126.004 242.112 126.125 241.981 126.208C241.85 126.292 241.697 126.335 241.542 126.332C241.387 126.329 241.236 126.28 241.108 126.192C241.006 126.125 240.92 126.035 240.858 125.93C240.473 125.3 239.95 124.766 239.329 124.367C238.122 123.549 236.64 123.242 235.208 123.513C233.776 123.784 232.509 124.612 231.685 125.814L228.145 131.005C228.09 131.094 228.016 131.171 227.93 131.232C227.843 131.292 227.746 131.334 227.642 131.356C227.539 131.377 227.433 131.378 227.329 131.357C227.226 131.337 227.128 131.296 227.041 131.236C226.953 131.177 226.879 131.101 226.822 131.012C226.766 130.923 226.727 130.824 226.71 130.72C226.692 130.616 226.696 130.509 226.72 130.407C226.745 130.304 226.79 130.208 226.853 130.123L233.933 119.74Z" fill="white"/>
<path d="M253.626 138.331C252.904 139.796 251.696 140.966 250.207 141.641C248.719 142.316 247.043 142.453 245.465 142.031C243.886 141.608 242.503 140.652 241.551 139.324C240.599 137.996 240.137 136.379 240.243 134.748C240.349 133.118 241.018 131.574 242.134 130.382C243.251 129.189 244.747 128.42 246.367 128.206C247.987 127.992 249.631 128.346 251.018 129.209C252.406 130.071 253.452 131.388 253.978 132.935C254.292 133.811 254.422 134.741 254.362 135.669C254.301 136.597 254.051 137.503 253.626 138.331ZM249.717 130.274C248.58 129.712 247.282 129.561 246.046 129.848C244.81 130.135 243.712 130.842 242.939 131.848C242.165 132.854 241.764 134.097 241.804 135.365C241.844 136.633 242.323 137.848 243.158 138.803C243.993 139.759 245.134 140.395 246.385 140.603C247.637 140.812 248.922 140.58 250.022 139.948C251.122 139.315 251.969 138.321 252.418 137.134C252.867 135.947 252.891 134.641 252.486 133.439C252.265 132.75 251.906 132.114 251.429 131.57C250.953 131.025 250.371 130.584 249.717 130.274Z" fill="white"/>
<path d="M258.149 133.251C258.177 133.152 258.225 133.059 258.289 132.98C258.354 132.9 258.435 132.834 258.526 132.786C258.663 132.711 258.82 132.678 258.975 132.692C259.131 132.706 259.279 132.766 259.4 132.865C259.521 132.963 259.61 133.096 259.655 133.246C259.7 133.395 259.699 133.555 259.653 133.704L259.138 135.394C261.267 134.253 263.269 133.965 265.144 134.532C266.036 134.777 266.867 135.203 267.586 135.783C267.703 135.873 267.799 135.987 267.868 136.118C267.941 136.256 267.971 136.413 267.955 136.568C267.939 136.723 267.877 136.87 267.778 136.991C267.679 137.111 267.546 137.199 267.397 137.245C267.247 137.29 267.088 137.29 266.938 137.244C266.821 137.211 266.712 137.151 266.62 137.07C266.064 136.583 265.404 136.231 264.691 136.039C263.294 135.622 261.789 135.774 260.505 136.463C259.22 137.153 258.261 138.322 257.836 139.717L256.023 145.732C255.994 145.831 255.945 145.924 255.88 146.004C255.815 146.084 255.735 146.15 255.644 146.199C255.553 146.248 255.453 146.278 255.351 146.288C255.248 146.298 255.144 146.287 255.046 146.256C254.947 146.227 254.855 146.179 254.775 146.114C254.695 146.049 254.629 145.969 254.581 145.878C254.532 145.788 254.502 145.688 254.493 145.586C254.483 145.483 254.494 145.38 254.525 145.282L258.149 133.251Z" fill="white"/>
<path d="M252.556 79.7437C252.556 79.7437 262.309 117.928 300.493 121.249" stroke="white" stroke-width="1.68971" stroke-linecap="round" stroke-linejoin="round"/>
<path d="M264.595 65.5611C264.229 60.5624 267.003 54.088 273.43 51.6182" stroke="white" stroke-width="1.68971" stroke-linecap="round" stroke-linejoin="round"/>
<path d="M306.922 82.4956C306.922 82.4956 286.792 63.6271 263.134 77.9418M307.058 86.2327C307.058 86.2327 283.683 71.5491 263.207 90.1331" stroke="#563746" stroke-width="1.68971" stroke-linecap="round" stroke-linejoin="round"/>
<path d="M1 212.065H500.31" stroke="#563746" stroke-width="1.68971" stroke-linecap="round" stroke-linejoin="round"/>
</svg>
