<svg width="25" height="25" viewBox="0 0 25 25" fill="none" xmlns="http://www.w3.org/2000/svg">
<path d="M13.0054 21.4416C12.6735 21.4827 12.3394 21.5036 12.005 21.5036C7.03234 21.5036 3.00122 17.4725 3.00122 12.4998C3.00122 7.52721 7.03234 3.49609 12.005 3.49609C16.9776 3.49609 21.0087 7.52721 21.0087 12.4998C21.0087 12.8343 20.9878 13.1684 20.9467 13.5003" stroke="#563746" stroke-width="2" stroke-linecap="round" stroke-linejoin="round"/>
<path d="M20.0083 17.502L17.5073 20.003L16.0067 18.5024" stroke="#563746" stroke-width="2" stroke-linecap="round" stroke-linejoin="round"/>
<path d="M12.005 13.2117L13.3326 12.4742C13.9951 12.1062 14.406 11.4079 14.406 10.65C14.3275 9.38966 13.2467 8.42889 11.9858 8.49869C10.8593 8.45192 9.85885 9.21348 9.604 10.3119" stroke="#563746" stroke-width="2" stroke-linecap="round" stroke-linejoin="round"/>
<path d="M12.1052 16.4017C12.1051 16.4569 12.0603 16.5016 12.0051 16.5016C11.9499 16.5016 11.9051 16.4568 11.9051 16.4016C11.9051 16.3464 11.9498 16.3016 12.005 16.3015C12.0316 16.3015 12.0571 16.312 12.0759 16.3308C12.0947 16.3496 12.1052 16.3751 12.1052 16.4017" stroke="#563746" stroke-width="2" stroke-linecap="round" stroke-linejoin="round"/>
</svg>
