<svg width="24" height="24" viewBox="0 0 24 24" fill="none" xmlns="http://www.w3.org/2000/svg">
<path d="M20.525 8H3.475C2.93708 8.00055 2.50055 7.56493 2.5 7.027C2.5 7.027 2.5 7.027 2.5 7.027V4.975V4.97501C2.49944 4.43708 2.93507 4.00056 3.47299 4C3.47299 4 3.47299 4 3.47299 4H20.526C21.0639 4 21.5 4.43607 21.5 4.974V7.026C21.5 7.56393 21.0639 8 20.526 8H20.525Z" fill="#BB93AD" stroke="white" stroke-width="1.5" stroke-linecap="round" stroke-linejoin="round"/>
<path d="M17.16 20H6.84C5.79983 19.9999 4.93333 19.2026 4.847 18.166L4 8H20L19.153 18.166C19.0667 19.2026 18.2002 20 17.16 20Z" fill="#BB93AD" stroke="white" stroke-width="1.5" stroke-linecap="round" stroke-linejoin="round"/>
<path d="M12 16.35V12" stroke="white" stroke-width="1.5" stroke-linecap="round" stroke-linejoin="round"/>
<path d="M10 14.3491L12 16.3491L14 14.3491" stroke="white" stroke-width="1.5" stroke-linecap="round" stroke-linejoin="round"/>
</svg>
