<svg width="23" height="30" viewBox="0 0 23 30" fill="none" xmlns="http://www.w3.org/2000/svg">
<path fill-rule="evenodd" clip-rule="evenodd" d="M11.3884 10.751C10.4044 10.751 8.87136 9.60502 7.27836 9.60502C5.16036 9.60502 3.22236 10.8995 2.13036 12.7985C-0.0656374 16.6115 1.56486 22.2455 3.70686 25.3445C4.75836 26.8535 5.99736 28.5515 7.64136 28.4975C9.21786 28.43 9.81036 27.473 11.7244 27.473C13.6249 27.473 14.1634 28.4975 15.8344 28.457C17.5324 28.43 18.6109 26.921 19.6474 25.3985C20.8474 23.6465 21.3454 21.9485 21.3724 21.854C21.3319 21.8405 18.0709 20.588 18.0304 16.814C18.0034 13.661 20.6044 12.152 20.7259 12.0845C19.2439 9.91552 16.9669 9.67252 16.1719 9.61852C14.0959 9.45652 12.3589 10.751 11.3884 10.751Z" fill="#C4B6BE" stroke="#C4B6BE" stroke-width="1.5" stroke-linecap="round" stroke-linejoin="round"/>
<path fill-rule="evenodd" clip-rule="evenodd" d="M14.4765 1.43095C15.78 0.945663 16.6326 1.66116 16.3809 3.02907C16.1292 4.39697 14.8686 5.89927 13.5651 6.38455C12.2617 6.86983 11.409 6.15433 11.6607 4.78643C11.9124 3.41853 13.173 1.91623 14.4765 1.43095Z" fill="#C4B6BE"/>
<path d="M14.4765 1.43095C15.78 0.945663 16.6326 1.66116 16.3809 3.02907C16.1292 4.39697 14.8686 5.89927 13.5651 6.38455C12.2617 6.86983 11.409 6.15433 11.6607 4.78643C11.9124 3.41853 13.173 1.91623 14.4765 1.43095" stroke="#C4B6BE" stroke-width="1.49996" stroke-linecap="round" stroke-linejoin="round"/>
</svg>
