<svg width="44" height="47" viewBox="0 0 44 47" fill="none" xmlns="http://www.w3.org/2000/svg">
<path fill-rule="evenodd" clip-rule="evenodd" d="M29.5191 15.0366C33.5788 19.0836 33.5788 25.6448 29.5191 29.6918L23.8995 35.2936C22.9428 36.2469 21.3921 36.2469 20.4354 35.2936L14.8157 29.6918C12.8656 27.7487 11.7699 25.1128 11.7699 22.3642C11.7699 19.6156 12.8656 16.9797 14.8157 15.0366C16.7651 13.0922 19.4098 11.9998 22.1674 11.9998C24.9251 11.9998 27.5698 13.0922 29.5191 15.0366Z" fill="#FE82F3" stroke="#FE82F3" stroke-width="2" stroke-linecap="round" stroke-linejoin="round"/>
<g filter="url(#filter0_d_66_163)">
<path fill-rule="evenodd" clip-rule="evenodd" d="M29.5191 15.0366C33.5788 19.0836 33.5788 25.6448 29.5191 29.6918L23.8995 35.2936C22.9428 36.2469 21.3921 36.2469 20.4354 35.2936L14.8157 29.6918C12.8656 27.7487 11.7699 25.1128 11.7699 22.3642C11.7699 19.6156 12.8656 16.9797 14.8157 15.0366C16.7651 13.0922 19.4098 11.9998 22.1674 11.9998C24.9251 11.9998 27.5698 13.0922 29.5191 15.0366Z" fill="#FE82F3"/>
<path fill-rule="evenodd" clip-rule="evenodd" d="M29.5191 15.0366C33.5788 19.0836 33.5788 25.6448 29.5191 29.6918L23.8995 35.2936C22.9428 36.2469 21.3921 36.2469 20.4354 35.2936L14.8157 29.6918C12.8656 27.7487 11.7699 25.1128 11.7699 22.3642C11.7699 19.6156 12.8656 16.9797 14.8157 15.0366C16.7651 13.0922 19.4098 11.9998 22.1674 11.9998C24.9251 11.9998 27.5698 13.0922 29.5191 15.0366Z" stroke="#FE82F3" stroke-width="2" stroke-linecap="round" stroke-linejoin="round"/>
</g>
<path fill-rule="evenodd" clip-rule="evenodd" d="M22.168 21.6709C24.3849 21.6709 26.182 23.4623 26.182 25.6721C26.182 26.4088 25.5829 27.0059 24.844 27.0059H19.4919C18.753 27.0059 18.1539 26.4088 18.1539 25.6721C18.1539 23.4623 19.9511 21.6709 22.168 21.6709Z" fill="white" stroke="white" stroke-width="2" stroke-linecap="round" stroke-linejoin="round"/>
<path d="M18.1539 18.6699C17.9693 18.6706 17.8202 18.8202 17.8207 19.0042C17.8212 19.1882 17.9711 19.337 18.1557 19.3367C18.3402 19.3365 18.4897 19.1873 18.4897 19.0033C18.4901 18.9145 18.4548 18.8293 18.3917 18.7667C18.3286 18.704 18.2429 18.6692 18.1539 18.6699" stroke="white" stroke-width="2" stroke-linecap="round" stroke-linejoin="round"/>
<path d="M26.1819 18.6699C25.9974 18.6706 25.8483 18.8202 25.8488 19.0042C25.8493 19.1882 25.9992 19.337 26.1837 19.3367C26.3683 19.3365 26.5178 19.1873 26.5178 19.0033C26.5181 18.9145 26.4828 18.8293 26.4197 18.7667C26.3566 18.704 26.271 18.6692 26.1819 18.6699" stroke="white" stroke-width="2" stroke-linecap="round" stroke-linejoin="round"/>
<path d="M22.1679 17.3364C21.9833 17.3371 21.8343 17.4867 21.8347 17.6707C21.8352 17.8547 21.9851 18.0035 22.1697 18.0032C22.3543 18.003 22.5037 17.8538 22.5038 17.6698C22.5041 17.581 22.4688 17.4958 22.4057 17.4332C22.3426 17.3705 22.257 17.3357 22.1679 17.3364" stroke="white" stroke-width="2" stroke-linecap="round" stroke-linejoin="round"/>
<defs>
<filter id="filter0_d_66_163" x="0.769897" y="-0.000244141" width="42.7939" height="46.0088" filterUnits="userSpaceOnUse" color-interpolation-filters="sRGB">
<feFlood flood-opacity="0" result="BackgroundImageFix"/>
<feColorMatrix in="SourceAlpha" type="matrix" values="0 0 0 0 0 0 0 0 0 0 0 0 0 0 0 0 0 0 127 0" result="hardAlpha"/>
<feOffset dy="-1"/>
<feGaussianBlur stdDeviation="5"/>
<feComposite in2="hardAlpha" operator="out"/>
<feColorMatrix type="matrix" values="0 0 0 0 0.996078 0 0 0 0 0.509804 0 0 0 0 0.952941 0 0 0 0.7 0"/>
<feBlend mode="normal" in2="BackgroundImageFix" result="effect1_dropShadow_66_163"/>
<feBlend mode="normal" in="SourceGraphic" in2="effect1_dropShadow_66_163" result="shape"/>
</filter>
</defs>
</svg>
