<svg width="24" height="24" viewBox="0 0 24 24" fill="none" xmlns="http://www.w3.org/2000/svg">
<path d="M7.1769 7.82301C7.24845 7.89456 7.26986 8.00216 7.23114 8.09565C7.19241 8.18914 7.10119 8.25009 7 8.25009C6.89881 8.25009 6.80759 8.18914 6.76886 8.09565C6.73014 8.00216 6.75155 7.89456 6.8231 7.82301C6.9209 7.72554 7.0791 7.72554 7.1769 7.82301" stroke="#563746" stroke-width="2" stroke-linecap="round" stroke-linejoin="round"/>
<path d="M12.1764 7.82301C12.248 7.89456 12.2694 8.00216 12.2306 8.09565C12.1919 8.18914 12.1007 8.25009 11.9995 8.25009C11.8983 8.25009 11.8071 8.18914 11.7684 8.09565C11.7297 8.00216 11.7511 7.89456 11.8226 7.82301C11.9204 7.72554 12.0786 7.72554 12.1764 7.82301" stroke="#563746" stroke-width="2" stroke-linecap="round" stroke-linejoin="round"/>
<path d="M17.1769 7.82301C17.2485 7.89456 17.2699 8.00216 17.2311 8.09565C17.1924 8.18914 17.1012 8.25009 17 8.25009C16.8988 8.25009 16.8076 8.18914 16.7689 8.09565C16.7301 8.00216 16.7515 7.89456 16.8231 7.82301C16.9209 7.72554 17.0791 7.72554 17.1769 7.82301" stroke="#563746" stroke-width="2" stroke-linecap="round" stroke-linejoin="round"/>
<path d="M10 13H5C4.46952 13.0001 3.96073 12.7895 3.58563 12.4144C3.21052 12.0393 3 11.5305 3 11V5C3 4.46952 3.21052 3.96073 3.58563 3.58563C3.96073 3.21052 4.46952 2.99985 5 3H19C19.5305 2.99985 20.0393 3.21052 20.4144 3.58563C20.7895 3.96073 21 4.46952 21 5V8" stroke="#563746" stroke-width="2" stroke-linecap="round" stroke-linejoin="round"/>
<path fill-rule="evenodd" clip-rule="evenodd" d="M13.6433 16.6831L11.3149 19.0164C11.1137 19.2193 11.0006 19.4932 11 19.7789V20.9214C11 21.5171 11.4829 22 12.0786 22H13.2259C13.5123 22.0004 13.7868 21.8861 13.9884 21.6827L16.312 19.3542C16.7376 19.5032 17.1846 19.5819 17.6355 19.5871C19.508 19.6179 21.1845 18.4316 21.7784 16.6555C22.3723 14.8793 21.7466 12.9232 20.2321 11.8215C18.7176 10.7198 16.6638 10.7268 15.1568 11.8387C13.6499 12.9507 13.0374 14.911 13.6433 16.6831V16.6831Z" stroke="#563746" stroke-width="2" stroke-linecap="round" stroke-linejoin="round"/>
<path d="M17.6355 15.2394C17.5665 15.2394 17.5105 15.2954 17.5105 15.3644C17.5105 15.4335 17.5665 15.4894 17.6355 15.4894C17.7045 15.4894 17.7605 15.4335 17.7605 15.3644C17.7605 15.2954 17.7045 15.2394 17.6355 15.2394V15.2394" stroke="#563746" stroke-width="2" stroke-linecap="round" stroke-linejoin="round"/>
</svg>
