<svg width="118" height="110" viewBox="0 0 118 110" fill="none" xmlns="http://www.w3.org/2000/svg">
<g filter="url(#filter0_b_66_371)">
<rect opacity="0.3" x="0.5" y="0.5" width="117" height="109" rx="19.5" fill="#B9B9A9" stroke="url(#paint0_linear_66_371)"/>
<rect x="35" y="15" width="47" height="47" rx="23.5" fill="#4AAAC5"/>
<path d="M69 37.2764V49.0001" stroke="white" stroke-width="2" stroke-linecap="round" stroke-linejoin="round"/>
<path d="M50.25 49H46.5" stroke="white" stroke-width="2" stroke-linecap="round" stroke-linejoin="round"/>
<path fill-rule="evenodd" clip-rule="evenodd" d="M59 45.25V45.25C61.0711 45.25 62.75 46.9289 62.75 49V49C62.75 49.6904 62.1904 50.25 61.5 50.25H56.5C55.8096 50.25 55.25 49.6904 55.25 49V49C55.25 46.9289 56.9289 45.25 59 45.25Z" stroke="white" stroke-width="2" stroke-linecap="round" stroke-linejoin="round"/>
<path d="M49 37.2739V49.0002" stroke="white" stroke-width="2" stroke-linecap="round" stroke-linejoin="round"/>
<path d="M67.4375 37.75V37.75C68.9908 37.75 70.25 36.4908 70.25 34.9375V34.7788C70.25 34.2692 70.1114 33.7692 69.8488 33.3325L67.2238 28.9638C66.7729 28.2123 65.9614 27.7517 65.085 27.75H52.915C52.0374 27.75 51.2241 28.2102 50.7721 28.9624L48.1463 33.3325C47.8854 33.7697 47.7484 34.2696 47.75 34.7788V34.9375C47.75 36.4908 49.0092 37.75 50.5625 37.75V37.75" stroke="white" stroke-width="2" stroke-linecap="round" stroke-linejoin="round"/>
<path d="M71.5 49H67.75" stroke="white" stroke-width="2" stroke-linecap="round" stroke-linejoin="round"/>
<path d="M67.4375 37.7501C66.1929 37.75 65.0962 36.9323 64.7409 35.7394C64.7293 35.6847 64.681 35.6455 64.625 35.6455C64.569 35.6455 64.5207 35.6847 64.5091 35.7394C64.1539 36.9323 63.0572 37.7501 61.8125 37.7501C60.5678 37.7501 59.4711 36.9323 59.1159 35.7394C59.1043 35.6847 59.056 35.6455 59 35.6455C58.944 35.6455 58.8957 35.6847 58.8841 35.7394C58.5289 36.9323 57.4322 37.7501 56.1875 37.7501C54.9428 37.7501 53.8461 36.9323 53.4909 35.7394C53.4793 35.6847 53.431 35.6455 53.375 35.6455C53.319 35.6455 53.2707 35.6847 53.2591 35.7394C52.9038 36.9323 51.8071 37.75 50.5625 37.7501" stroke="white" stroke-width="2" stroke-linecap="round" stroke-linejoin="round"/>
<path d="M59.3129 41.5004C59.3126 41.6729 59.1727 41.8126 59.0002 41.8125C58.8277 41.8124 58.6879 41.6726 58.6879 41.5001C58.6878 41.3276 58.8275 41.1877 59 41.1875C59.083 41.1874 59.1626 41.2203 59.2213 41.279C59.28 41.3377 59.313 41.4174 59.3129 41.5004" stroke="white" stroke-width="2" stroke-linecap="round" stroke-linejoin="round"/>
<path d="M63.0629 42.7504C63.0626 42.9229 62.9227 43.0626 62.7502 43.0625C62.5777 43.0624 62.4379 42.9226 62.4379 42.7501C62.4378 42.5776 62.5775 42.4377 62.75 42.4375C62.833 42.4374 62.9126 42.4703 62.9713 42.529C63.03 42.5877 63.063 42.6674 63.0629 42.7504" stroke="white" stroke-width="2" stroke-linecap="round" stroke-linejoin="round"/>
<path d="M55.5629 42.7504C55.5626 42.9229 55.4227 43.0626 55.2502 43.0625C55.0777 43.0624 54.9379 42.9226 54.9379 42.7501C54.9378 42.5776 55.0775 42.4377 55.25 42.4375C55.333 42.4374 55.4126 42.4703 55.4713 42.529C55.53 42.5877 55.563 42.6674 55.5629 42.7504" stroke="white" stroke-width="2" stroke-linecap="round" stroke-linejoin="round"/>
<path d="M29.1094 87H31.125V83.2734H33.4531C35.7344 83.2734 37.2891 81.7578 37.2891 79.5078V79.4922C37.2891 77.2344 35.7344 75.7266 33.4531 75.7266H29.1094V87ZM32.9531 77.375C34.3984 77.375 35.2422 78.1484 35.2422 79.5V79.5156C35.2422 80.8672 34.3984 81.6484 32.9531 81.6484H31.125V77.375H32.9531ZM41.8984 87.1641C44.0625 87.1641 45.2812 85.8828 45.5391 84.6094L45.5625 84.5234H43.7422L43.7266 84.5781C43.5391 85.1328 42.9062 85.6484 41.9375 85.6484C40.6719 85.6484 39.875 84.7891 39.8438 83.3359H45.6406V82.7109C45.6406 80.2109 44.1719 78.5469 41.8047 78.5469C39.4375 78.5469 37.9141 80.2656 37.9141 82.875V82.8828C37.9141 85.5156 39.4141 87.1641 41.8984 87.1641ZM41.8281 80.0703C42.8594 80.0703 43.6094 80.7266 43.75 82.0391H39.8672C40.0234 80.7656 40.7969 80.0703 41.8281 80.0703ZM49.9766 87.1641C50.3672 87.1641 50.7109 87.125 50.9375 87.0938V85.6328C50.8047 85.6406 50.6562 85.6641 50.4688 85.6641C49.7578 85.6641 49.3984 85.4062 49.3984 84.5938V80.2188H50.9375V78.7188H49.3984V76.6172H47.4219V78.7188H46.25V80.2188H47.4219V84.7578C47.4219 86.4609 48.2422 87.1641 49.9766 87.1641ZM58.7109 87.1641C60.7422 87.1641 62.1875 86.1172 62.1875 84.5547V84.5469C62.1875 83.3438 61.5234 82.6719 59.8125 82.2891L58.4297 81.9844C57.5703 81.7891 57.25 81.4766 57.25 81V80.9922C57.25 80.3828 57.7891 79.9844 58.6484 79.9844C59.5547 79.9844 60.0859 80.4688 60.1719 81.1328L60.1797 81.1953H61.9922L61.9844 81.1094C61.9141 79.6797 60.7109 78.5469 58.6484 78.5469C56.6484 78.5469 55.3281 79.5703 55.3281 81.0859V81.0938C55.3281 82.3203 56.125 83.0938 57.7109 83.4453L59.0859 83.75C59.9453 83.9453 60.2344 84.2266 60.2344 84.7266V84.7344C60.2344 85.3438 59.6641 85.7266 58.7188 85.7266C57.7344 85.7266 57.1953 85.3047 57.0469 84.5938L57.0312 84.5234H55.1172L55.125 84.5938C55.2969 86.1328 56.5391 87.1641 58.7109 87.1641ZM63.4844 87H65.4297V82.2266C65.4297 81.0234 66.1484 80.1875 67.25 80.1875C68.3672 80.1875 69.0078 80.9531 69.0078 82.2266V87H70.9531V81.8438C70.9531 79.8438 69.8125 78.5469 68.0312 78.5469C66.7891 78.5469 65.9062 79.1172 65.4766 80.1094H65.4297V75.7266H63.4844V87ZM76.1875 87.1641C78.6172 87.1641 80.1953 85.5469 80.1953 82.8594V82.8438C80.1953 80.1719 78.5938 78.5469 76.1797 78.5469C73.7734 78.5469 72.1797 80.1875 72.1797 82.8438V82.8594C72.1797 85.5391 73.75 87.1641 76.1875 87.1641ZM76.1953 85.5938C74.9531 85.5938 74.1641 84.6016 74.1641 82.8594V82.8438C74.1641 81.125 74.9688 80.125 76.1797 80.125C77.4141 80.125 78.2109 81.1172 78.2109 82.8438V82.8594C78.2109 84.5938 77.4219 85.5938 76.1953 85.5938ZM81.4453 89.7344H83.3906V85.6016H83.4297C83.8984 86.5703 84.8438 87.1641 86.0234 87.1641C88.1016 87.1641 89.4297 85.5234 89.4297 82.8672V82.8594C89.4297 80.1875 88.1016 78.5469 86 78.5469C84.8125 78.5469 83.9062 79.1562 83.4297 80.1484H83.3906V78.7188H81.4453V89.7344ZM85.4219 85.5234C84.2188 85.5234 83.375 84.4844 83.375 82.8672V82.8594C83.375 81.2344 84.2188 80.1875 85.4219 80.1875C86.6641 80.1875 87.4453 81.2031 87.4453 82.8594V82.8672C87.4453 84.5 86.6641 85.5234 85.4219 85.5234Z" fill="#563746"/>
</g>
<defs>
<filter id="filter0_b_66_371" x="-12" y="-12" width="142" height="134" filterUnits="userSpaceOnUse" color-interpolation-filters="sRGB">
<feFlood flood-opacity="0" result="BackgroundImageFix"/>
<feGaussianBlur in="BackgroundImage" stdDeviation="6"/>
<feComposite in2="SourceAlpha" operator="in" result="effect1_backgroundBlur_66_371"/>
<feBlend mode="normal" in="SourceGraphic" in2="effect1_backgroundBlur_66_371" result="shape"/>
</filter>
<linearGradient id="paint0_linear_66_371" x1="150.5" y1="-13.5" x2="-34" y2="124.5" gradientUnits="userSpaceOnUse">
<stop stop-opacity="0"/>
<stop offset="1"/>
</linearGradient>
</defs>
</svg>
