<svg width="24" height="24" viewBox="0 0 24 24" fill="none" xmlns="http://www.w3.org/2000/svg">
<path d="M16 10.2924L19.4752 8.15023C19.6267 8.05682 19.8004 8.00555 19.9784 8.0017C20.1563 7.99785 20.3321 8.04156 20.4875 8.12832C20.6429 8.21508 20.7723 8.34175 20.8624 8.49524C20.9525 8.64874 21 8.8235 21 9.00149V15.9983C21 16.1763 20.9525 16.351 20.8624 16.5045C20.7723 16.658 20.6429 16.7847 20.4875 16.8714C20.3321 16.9582 20.1563 17.0019 19.9784 16.9981C19.8005 16.9942 19.6268 16.943 19.4753 16.8496L16 14.7074" stroke="#946985" stroke-width="2" stroke-linecap="round" stroke-linejoin="round"/>
<path d="M13 6H6C4.34315 6 3 7.34315 3 9V16C3 17.6569 4.34315 19 6 19H13C14.6569 19 16 17.6569 16 16V9C16 7.34315 14.6569 6 13 6Z" fill="#BB93AD" stroke="#946985" stroke-width="2" stroke-linecap="round" stroke-linejoin="round"/>
</svg>
