<svg width="352" height="293" viewBox="0 0 352 293" fill="none" xmlns="http://www.w3.org/2000/svg">
<path d="M222.567 252.592L223.471 252.954L225.64 253.68L229.074 254.585L233.956 255.493C238.228 255.992 242.552 255.87 246.791 255.129C252.072 254.117 257.145 252.219 261.795 249.512C266.932 246.43 271.416 242.367 274.991 237.553C278.678 232.468 281.264 226.665 282.583 220.52C283.816 214.611 283.878 208.514 282.764 202.582C281.755 197.259 279.662 192.201 276.618 187.722C274.846 184.868 272.582 182.351 269.93 180.294C268.302 179.207 267.76 179.207 267.941 180.112C268.121 181.018 272.46 186.637 275.352 194.97C276.821 199.782 277.493 204.801 277.342 209.83C277.234 215.747 275.813 221.565 273.184 226.863L272.099 229.037L270.833 231.03C270.111 232.479 269.026 233.567 268.121 235.016C265.936 237.537 263.515 239.844 260.89 241.902C259.575 242.912 258.186 243.82 256.732 244.621L254.383 245.888L253.298 246.432L252.034 246.794C248.841 248.14 245.505 249.113 242.091 249.694C236.018 250.503 229.843 249.945 224.013 248.063C219.608 246.49 215.51 244.158 211.9 241.177C207.322 237.485 203.668 232.768 201.236 227.406L200.151 224.688L199.427 222.333C198.865 220.928 198.44 219.471 198.162 217.983C197.757 216.496 197.454 214.983 197.259 213.454L196.717 210.735C196.535 209.648 196.535 208.743 196.354 207.473C196.174 206.206 196.174 204.393 195.811 204.575C195.45 204.757 195.089 206.206 194.728 208.381C194.568 209.642 194.508 210.913 194.547 212.185C194.524 213.818 194.584 215.451 194.728 217.078C195.134 220.944 196.109 224.73 197.62 228.312C199.197 232.222 201.328 235.883 203.948 239.184C206.455 242.167 209.308 244.845 212.443 247.157C214.701 248.798 217.124 250.195 219.674 251.325L221.844 252.231L222.567 252.592ZM87.8901 231.754L88.6132 230.848C89.0836 229.958 89.6278 229.111 90.2403 228.312C92.5207 225.193 95.2641 222.443 98.375 220.158C102.944 216.745 108.18 214.336 113.741 213.09L116.272 212.728L118.622 212.367H123.864C127.498 212.502 131.091 213.173 134.53 214.359C138.169 215.625 141.586 217.459 144.653 219.796C147.954 222.049 150.831 224.872 153.15 228.13C155.543 231.392 157.433 234.995 158.753 238.822C159.855 242.723 160.522 246.734 160.742 250.781C160.701 254.833 160.092 258.857 158.934 262.741C157.791 266.45 156.149 269.985 154.053 273.249C151.92 276.258 149.432 278.995 146.642 281.404C143.997 283.686 141.083 285.632 137.965 287.201C133.77 289.134 129.329 290.475 124.768 291.189C122.237 291.733 121.514 292.094 122.78 292.456L125.853 293H131.276C137.244 292.243 142.946 290.069 147.907 286.658C155.168 281.969 160.791 275.13 163.996 267.088C168.301 256.621 168.452 244.899 164.42 234.323C160.387 223.747 152.475 215.114 142.303 210.192C136.744 207.512 130.687 206.032 124.521 205.844C118.356 205.656 112.22 206.767 106.51 209.104C101.141 211.117 96.269 214.27 92.2287 218.345C88.691 221.681 85.7554 225.605 83.5515 229.943C81.6619 233.735 80.2646 237.754 79.3938 241.902C78.7211 245.424 78.4785 249.013 78.6707 252.592C78.9626 258.231 80.3117 263.764 82.6478 268.901C84.2474 272.578 86.3792 275.996 88.9747 279.048C92.5136 283.204 96.8077 286.646 101.629 289.194C106.646 291.617 112.149 292.857 117.718 292.818C121.152 292.818 122.418 292.456 122.056 292.276L120.429 291.733L116.633 291.189L114.102 290.645L111.391 289.738C110.316 289.539 109.279 289.173 108.318 288.652L106.691 288.109L105.064 287.201C100.285 284.825 96.041 281.495 92.5902 277.417C88.7719 273.021 85.9912 267.818 84.4555 262.197C82.9971 257.201 82.5665 251.962 83.19 246.794C83.5737 243.001 84.4866 239.28 85.9017 235.742L87.3479 232.841L87.7094 232.118L87.8901 231.754Z" fill="#563746"/>
<path d="M109.22 272.705L108.678 272.161L107.051 271.074C105.097 269.673 103.387 267.959 101.989 266.001C99.6737 262.764 98.1694 259.016 97.603 255.075C97.0367 251.131 97.4249 247.111 98.735 243.351C100.313 238.704 103.279 234.654 107.231 231.754C111.314 228.859 116.152 227.22 121.151 227.044C123.662 227.035 126.16 227.402 128.563 228.13C130.86 228.861 133.049 229.896 135.071 231.21C138.875 233.66 141.939 237.108 143.928 241.177C145.26 243.75 146.233 246.494 146.821 249.33C147.363 250.961 147.725 251.505 148.086 250.781C148.662 248.906 148.846 246.931 148.629 244.982C148.328 241.06 147.087 237.268 145.013 233.929C141.973 229.006 137.491 225.146 132.178 222.877C125.532 220.021 118.075 219.698 111.208 221.969C107.418 223.252 103.917 225.274 100.908 227.917C97.8984 230.56 95.4399 233.774 93.6733 237.373C91.8932 241.155 90.9251 245.273 90.8317 249.454C90.7383 253.637 91.5216 257.793 93.1311 261.653C95.993 268.272 101.034 273.709 107.412 277.055C109.865 278.279 112.484 279.135 115.185 279.591C117.57 280.029 119.994 280.21 122.416 280.135C126.103 279.86 129.713 278.941 133.082 277.416C135.528 276.333 137.786 274.864 139.771 273.069C142.595 270.826 144.881 267.978 146.459 264.733C148.034 261.398 148.778 257.729 148.629 254.041C148.086 249.33 147.725 250.599 147.002 254.585C146.38 257.099 145.47 259.531 144.29 261.833C142.72 264.881 140.571 267.587 137.963 269.807C135.185 272.19 131.912 273.924 128.382 274.88C125.202 275.729 121.891 275.975 118.62 275.605C116.24 275.424 113.912 274.808 111.751 273.792L109.943 272.887L109.22 272.705ZM238.113 222.877H236.123C234.249 222.9 232.377 222.778 230.52 222.513C225.458 221.789 218.227 220.882 210.093 220.158C205.244 219.204 200.247 219.328 195.45 220.52C192.824 221.458 190.332 222.737 188.037 224.326C186.115 225.69 184.3 227.205 182.615 228.855C179.158 231.715 175.954 234.869 173.034 238.278C170.309 241.475 168.001 245.008 166.165 248.786C164.955 251.159 164.218 253.743 163.995 256.398C163.995 257.847 164.357 258.391 165.261 258.029C166.165 257.665 169.599 253.318 174.299 248.606C179 243.895 179.723 243.713 182.976 240.997L188.58 236.829L194.185 232.661C195.83 231.582 197.673 230.842 199.608 230.486C201.922 229.983 204.304 229.861 206.657 230.125C212.081 230.486 217.866 230.666 223.652 230.666H231.786C234.332 230.624 236.87 230.38 239.378 229.943C241.661 229.43 243.856 228.575 245.885 227.406C247.696 226.216 249.186 224.599 250.224 222.695C251.184 221.112 251.686 219.291 251.67 217.44C251.852 216.056 251.852 214.655 251.67 213.272C251.309 210.855 250.948 208.862 250.585 207.293C250.101 204.567 249.184 201.938 247.875 199.502C247.194 198.399 246.406 197.367 245.524 196.421C244.395 195.171 242.962 194.235 241.366 193.703C240.8 193.442 240.181 193.318 239.559 193.341C239.196 193.521 239.017 193.521 239.017 193.885C239.017 194.247 239.739 194.97 240.463 195.878C241.598 197.271 242.457 198.871 242.993 200.589C243.831 203.013 244.495 205.498 244.982 208.017C245.551 210.697 245.794 213.435 245.705 216.172C245.69 217.943 244.974 219.638 243.717 220.882C242.601 221.725 241.298 222.285 239.92 222.513L238.113 222.877Z" fill="#563746"/>
<path d="M160.56 221.789C162.91 229.581 162.549 238.096 164.899 245.888C165.441 247.337 169.78 245.888 170.141 244.621C171.528 239.994 172.556 235.269 173.214 230.486C173.847 225.622 174.936 220.83 176.469 216.172L171.226 217.258C171.226 222.695 170.684 228.13 170.322 233.567L169.78 241.72C169.78 243.713 169.237 247.157 171.407 248.063C172.126 248.291 172.887 248.359 173.635 248.266C174.384 248.171 175.104 247.918 175.745 247.519C176.936 246.923 177.845 245.882 178.276 244.621C178.804 243.08 179.227 241.505 179.542 239.909C180.806 235.378 181.891 230.668 182.976 225.957C184.061 221.246 184.964 217.078 186.412 212.91L181.349 213.998C181.439 215.747 181.439 217.502 181.349 219.253C181.349 221.969 181.169 224.688 180.988 227.406C180.806 230.125 180.806 232.661 180.806 235.378C180.627 237.125 180.627 238.886 180.806 240.633C181.169 242.264 185.327 240.633 185.869 239.909C186.881 238.357 187.614 236.639 188.037 234.834C188.942 232.118 189.664 229.399 190.388 226.681C191.11 223.962 192.737 217.622 193.461 212.91L188.4 214.359C188.219 214.178 188.4 215.085 188.4 215.265V217.44C188.4 219.614 188.219 221.607 188.219 223.782C188.219 225.957 188.037 227.768 187.858 229.761C187.67 230.879 187.86 232.027 188.4 233.023C189.122 234.292 194.183 232.479 193.28 231.21C192.377 229.943 193.28 230.486 193.1 230.125V227.95C193.28 225.775 193.28 223.782 193.461 221.607C193.643 219.433 193.643 217.622 193.643 215.629C193.793 214.528 193.668 213.407 193.28 212.367C192.558 211.279 188.4 212.548 188.219 213.816C187.495 218.165 186.412 222.695 185.327 227.044C184.242 231.392 183.879 232.479 182.976 235.198C182.501 236.899 181.835 238.539 180.988 240.089L186.049 239.184C185.869 237.498 185.869 235.796 186.049 234.11C186.049 231.392 186.23 228.674 186.23 225.957C186.23 223.238 186.591 220.702 186.591 217.983C186.711 216.17 186.651 214.35 186.412 212.548C186.23 211.097 181.712 212.728 181.349 213.816C179.544 219.15 178.094 224.597 177.011 230.125C176.287 233.385 175.384 236.465 174.661 239.545L173.576 243.351C173.543 243.911 173.421 244.462 173.214 244.982C173.034 245.344 172.31 246.432 173.214 246.25L175.202 245.706C175.926 245.888 175.384 245.706 175.384 245.344C175.341 245.039 175.282 244.737 175.202 244.439C175.054 243.909 174.994 243.357 175.023 242.808V239.545L175.565 231.03C175.926 225.957 176.469 220.882 176.469 215.809C176.287 214.359 171.587 215.809 171.226 216.896C169.839 221.582 168.811 226.367 168.153 231.21C167.433 236.059 166.345 240.844 164.899 245.526L170.141 244.439C167.791 236.647 168.153 228.13 165.803 220.338C165.26 218.889 160.018 220.338 160.56 221.789ZM207.923 215.265C207.742 213.816 207.381 212.548 207.199 211.097L201.959 212.548C202.32 213.998 202.501 215.809 203.043 217.44C203.804 219.998 205.03 222.393 206.659 224.506C207.742 225.957 211.178 224.326 211.72 223.238C213.122 220.059 214.094 216.708 214.612 213.272C215.231 209.923 215.594 206.531 215.697 203.126L210.454 204.393C213.347 211.097 213.166 218.709 215.878 225.413C216.6 227.044 220.758 225.593 221.121 224.326C222.514 220.539 223.366 216.573 223.651 212.548C224.161 208.582 224.404 204.586 224.373 200.589L219.131 202.038C222.024 209.286 221.3 217.622 224.194 224.87C224.916 226.501 228.892 224.87 229.435 223.782C230.072 222.225 230.438 220.57 230.519 218.889C230.882 216.352 230.882 213.634 231.062 210.917C231.243 208.199 231.786 202.038 230.882 197.871L225.64 199.32C226.904 203.126 227.085 207.837 227.809 211.823C228.531 215.809 228.531 216.896 229.074 219.253C229.313 220.911 229.865 222.511 230.701 223.962C231.425 225.049 235.583 223.962 235.762 222.513C236.847 214.359 237.208 206.024 238.113 197.871L232.871 198.958C233.774 203.306 233.774 208.017 234.316 212.548C234.44 215.162 234.741 217.765 235.22 220.338C235.316 222.174 235.81 223.968 236.666 225.593C237.389 227.224 241.729 225.957 241.908 224.326C242.09 214.721 240.644 205.3 240.823 195.878C240.823 194.608 235.762 195.514 235.583 197.327C235.606 201.893 236.09 206.448 237.029 210.917C237.571 213.454 237.932 216.172 238.656 218.709C238.968 220.46 239.646 222.128 240.644 223.6C241.547 224.87 245.705 223.42 245.705 221.969V206.024L240.463 207.473C240.876 211.211 242.387 214.743 244.802 217.622C245.705 218.709 250.045 217.622 249.863 215.991C249.245 209.079 247.601 202.299 244.981 195.878C244.259 194.428 239.559 195.696 239.739 197.327C240.109 201.982 241.335 206.527 243.354 210.735C244.078 212.185 248.96 211.097 248.597 209.466L247.333 203.306C246.97 202.038 246.97 200.045 246.066 199.138C245.163 198.232 239.92 198.958 240.281 201.313C240.644 203.669 241.005 201.676 241.366 201.856H241.547C242.192 201.947 242.85 201.897 243.474 201.709C244.097 201.522 244.674 201.2 245.163 200.769C246.066 200.225 245.887 199.502 244.802 199.32H244.62L245.524 199.863V199.502L244.078 200.769H241.186C241.729 201.133 242.09 204.575 242.271 205.3L243.354 210.554L248.597 209.286C246.599 205.006 245.373 200.405 244.981 195.696L239.739 197.145C242.379 203.561 244.026 210.345 244.62 217.258L249.682 215.447C247.379 212.746 245.987 209.385 245.705 205.842C245.705 204.393 240.463 205.662 240.463 207.293V223.238L245.524 221.426C244.659 219.97 244.047 218.378 243.717 216.714C243.175 214.178 242.632 211.461 242.271 208.743C241.333 204.457 240.849 200.084 240.823 195.696L235.583 197.145C235.401 206.568 236.847 215.99 236.666 225.413L241.908 224.144C241.096 222.565 240.605 220.841 240.463 219.071C239.92 216.352 239.739 213.634 239.378 210.917C239.225 206.367 238.802 201.827 238.113 197.327C237.932 195.878 233.05 197.145 233.05 198.414C231.967 206.568 231.604 214.903 230.519 223.238L235.583 221.789C234.785 220.41 234.349 218.852 234.316 217.258C233.774 214.903 233.413 212.367 232.871 209.83C232.575 205.73 231.909 201.667 230.882 197.689C230.34 196.058 225.277 197.509 225.64 199.138C226.001 200.769 226.001 207.655 225.819 211.823C225.813 214.429 225.632 217.031 225.277 219.614C225.174 221.234 224.81 222.824 224.194 224.326L229.435 223.238C226.543 215.99 227.267 207.655 224.373 200.407C223.651 198.776 219.131 200.225 219.131 201.856C219.167 205.796 218.924 209.731 218.409 213.634C218.104 217.54 217.252 221.383 215.878 225.049L221.121 223.962C218.409 217.258 218.588 209.648 215.697 202.944C215.154 201.313 210.454 202.762 210.454 204.213C210.402 207.63 209.977 211.033 209.19 214.359C208.732 217.593 207.881 220.756 206.659 223.782L211.72 222.513C210.02 220.311 208.788 217.782 208.105 215.085C207.742 213.634 207.562 212.185 207.199 210.917C206.838 209.648 201.596 210.735 201.959 212.367C202.32 213.998 202.501 215.085 202.681 216.352C202.862 217.622 208.105 216.714 207.923 215.085V215.265Z" fill="#563746"/>
<path d="M283.305 171.233C283.305 171.233 206.295 195.152 165.079 213.816C123.863 232.479 198.884 219.433 265.227 189.717C331.572 159.999 328.136 166.704 346.937 154.201C365.739 141.698 283.305 171.233 283.305 171.233ZM100.362 177.576C100.362 177.576 110.847 122.129 110.847 90.4187C110.847 58.7087 91.8662 109.264 91.3238 160.181C90.7815 211.097 86.0814 206.75 89.516 222.513C92.9508 238.278 100.362 177.576 100.362 177.576Z" fill="#563746"/>
<path d="M79.2112 123.76L32.7524 191.346L351.998 151.121L79.2112 123.76ZM158.391 57.9843L104.52 81.1776L352 151.121L158.391 57.9843ZM341.154 179.025L304.093 193.521C303.551 193.703 301.924 194.247 302.466 194.97C303.009 195.696 305.36 194.79 305.902 194.608L342.96 180.113C343.503 179.931 345.13 179.389 344.588 178.663C344.045 177.938 341.694 178.845 341.154 179.025ZM94.9396 20.1134C97.4807 20.1134 99.9175 19.1017 101.714 17.3005C103.511 15.4996 104.521 13.0568 104.521 10.5097C104.521 7.96289 103.511 5.52012 101.714 3.71915C99.9175 1.91799 97.4807 0.90625 94.9396 0.90625C92.3985 0.90625 89.9615 1.91799 88.1648 3.71915C86.3678 5.52012 85.3585 7.96289 85.3585 10.5097C85.3585 13.0568 86.3678 15.4996 88.1648 17.3005C89.9615 19.1017 92.3985 20.1134 94.9396 20.1134Z" fill="#FFA500"/>
<path d="M94.9404 21.0191C92.8667 21.0191 90.8394 20.4029 89.1153 19.248C87.3911 18.0932 86.0473 16.4519 85.2537 14.5315C84.4602 12.611 84.2524 10.4979 84.657 8.45936C85.0616 6.42059 86.0602 4.54803 87.5265 3.07812C88.9927 1.6084 90.8611 0.607497 92.8948 0.20195C94.9288 -0.203597 97.0369 0.00459452 98.9528 0.800016C100.869 1.59544 102.506 2.94249 103.658 4.6707C104.81 6.39912 105.425 8.43092 105.425 10.5095C105.425 13.2969 104.321 15.9701 102.354 17.941C100.388 19.912 97.7212 21.0191 94.9404 21.0191ZM94.9404 1.81195C93.7942 1.78738 92.6547 1.99537 91.5909 2.42375C90.5269 2.85213 89.5606 3.4918 88.7499 4.30444C87.9392 5.11708 87.3008 6.08567 86.8736 7.15216C86.4462 8.21866 86.2385 9.36062 86.2633 10.5095C86.2633 12.8163 87.1775 15.0286 88.8047 16.6597C90.432 18.2908 92.6391 19.2071 94.9404 19.2071C97.2417 19.2071 99.4488 18.2908 101.076 16.6597C102.703 15.0286 103.618 12.8163 103.618 10.5095C103.642 9.36062 103.435 8.21866 103.007 7.15216C102.58 6.08567 101.942 5.11708 101.131 4.30444C100.32 3.4918 99.3539 2.85213 98.2899 2.42375C97.2261 1.99537 96.0866 1.78738 94.9404 1.81195ZM312.954 279.048C320.641 279.048 326.874 272.802 326.874 265.095C326.874 257.389 320.641 251.143 312.954 251.143C305.266 251.143 299.035 257.389 299.035 265.095C299.035 272.802 305.266 279.048 312.954 279.048Z" fill="#FFA500"/>
<path d="M312.954 279.953C310.022 279.953 307.155 279.082 304.717 277.449C302.279 275.816 300.38 273.496 299.259 270.782C298.137 268.065 297.844 265.078 298.415 262.197C298.986 259.314 300.399 256.667 302.472 254.589C304.546 252.511 307.186 251.097 310.062 250.522C312.937 249.949 315.917 250.243 318.625 251.367C321.336 252.492 323.65 254.397 325.279 256.841C326.908 259.283 327.777 262.156 327.777 265.095C327.777 269.037 326.215 272.815 323.436 275.602C320.656 278.388 316.884 279.953 312.954 279.953ZM312.954 252.049C310.379 252.049 307.862 252.815 305.723 254.248C303.582 255.68 301.915 257.72 300.928 260.103C299.944 262.487 299.685 265.109 300.189 267.64C300.691 270.17 301.93 272.496 303.75 274.321C305.571 276.145 307.889 277.387 310.414 277.891C312.939 278.394 315.556 278.136 317.934 277.148C320.312 276.161 322.345 274.489 323.775 272.343C325.206 270.198 325.97 267.676 325.97 265.095C325.97 261.636 324.598 258.317 322.158 255.87C319.716 253.424 316.405 252.049 312.954 252.049ZM48.1198 92.412C49.7467 90.4187 52.2775 86.6136 54.9892 86.0699C57.7007 85.5264 60.4124 88.6067 61.3162 91.3248C61.8295 93.8854 63.0153 96.2624 64.751 98.2104C65.7743 98.9153 66.9651 99.3367 68.2032 99.432C69.4411 99.5276 70.6823 99.2935 71.8011 98.7539C73.8391 97.9341 75.6854 96.7002 77.2243 95.1299C77.9474 94.5864 77.9474 94.5864 77.4052 94.9488C76.8627 95.3112 76.8627 95.3112 77.4052 95.4923C77.9474 95.6736 78.3089 96.2171 78.4898 96.5795L80.8398 99.8411C83.1899 102.922 89.8785 103.465 91.8671 99.4787C92.2286 98.5728 90.0593 98.7539 89.6978 98.9352C89.1061 98.906 88.5166 99.0228 87.9808 99.2757C87.4449 99.5284 86.9791 99.9092 86.6245 100.385C86.0823 101.291 86.6245 101.291 88.6131 100.022L87.5285 99.66L86.263 98.7539C85.3592 97.848 84.8168 96.3984 83.913 95.4923C83.4125 94.5641 82.6446 93.8084 81.7096 93.3235C80.7745 92.8388 79.7156 92.6475 78.6705 92.7744C76.2798 93.1335 74.0308 94.1354 72.1626 95.6736L70.7164 96.9419L70.1742 97.4856C70.7164 97.1232 70.7164 96.9419 70.1742 96.7608C69.1749 95.7367 68.323 94.5779 67.6434 93.3179C66.5587 90.7811 66.3779 87.8819 64.3895 85.8888C63.437 85.0504 62.3095 84.4363 61.0896 84.0915C59.8696 83.7465 58.5883 83.6796 57.3392 83.8955C50.8313 84.2579 46.6736 88.4256 42.8773 93.3179C42.335 94.224 44.8659 94.0427 45.0466 94.0427C46.231 93.88 47.3197 93.3022 48.1198 92.412ZM8.8918 118.867H6.36096L6.90319 120.498L11.6033 116.874C12.8688 115.968 14.8572 113.612 16.3034 114.881C17.7496 116.149 19.0151 119.411 20.2805 121.404C24.2575 127.202 32.5731 124.484 37.0925 120.86C38.5829 119.847 39.922 118.627 41.0695 117.236L41.4311 116.874C41.7926 116.693 41.6118 116.511 41.2502 116.693C40.8887 116.874 40.708 116.149 41.2502 116.874L42.5157 117.961C43.9619 119.773 45.2272 121.947 47.5774 122.672C48.8504 123.041 50.1953 123.085 51.4897 122.8C52.784 122.515 53.987 121.91 54.989 121.041C56.9776 119.592 58.6045 115.968 61.1353 115.424C63.1616 115.371 65.1813 115.678 67.101 116.33C68.8805 116.75 70.6969 116.992 72.5242 117.055C74.2894 117.202 76.0649 116.953 77.7223 116.326C79.3795 115.699 80.8766 114.71 82.1051 113.431C82.8282 112.525 81.382 111.981 80.6589 111.981C80.0119 111.924 79.3604 112.025 78.7618 112.278C78.163 112.531 77.6351 112.927 77.2243 113.431C75.2357 115.605 70.7164 113.612 68.3663 113.069C65.0809 112.166 61.5917 112.356 58.4238 113.612C55.5314 114.699 54.0852 117.055 51.916 119.229C49.7467 121.404 50.6504 120.135 51.1929 120.135C51.7351 120.135 50.6504 119.592 50.2889 119.411C49.4112 118.591 48.6232 117.68 47.9389 116.693C47.3697 115.801 46.5979 115.057 45.6868 114.521C44.7755 113.986 43.7509 113.674 42.6964 113.612C39.0809 113.793 37.0925 116.33 34.5617 118.686C32.0308 121.041 28.596 123.397 25.8845 120.135C23.1728 116.874 23.5344 115.424 21.9075 113.431C16.3034 107.089 6.90319 116.511 2.56462 119.773C1.84152 120.498 2.02239 121.404 3.10704 121.585H5.63787C6.29881 121.704 6.97693 121.685 7.63015 121.529C8.28336 121.373 8.8974 121.084 9.43402 120.679C9.97644 119.954 9.97644 119.048 8.8918 118.867ZM1.66046 140.067C12.9599 140.458 24.2718 139.852 35.4653 138.255C36.369 138.074 38.3576 137.531 38.5383 136.443C38.7192 135.356 36.9114 135.356 36.1884 135.537C25.4205 137.143 14.5279 137.75 3.64907 137.349C3.01689 137.27 2.37506 137.343 1.77744 137.564C1.17962 137.785 0.64359 138.146 0.214269 138.618C-0.508826 139.705 0.756592 140.067 1.66046 140.067ZM7.44542 210.374L10.5185 207.111L12.3262 205.662H11.784C11.0609 205.662 10.88 205.662 11.4224 206.024C11.9647 206.386 11.9647 206.929 12.1455 207.111C12.5847 208.176 13.2483 209.129 14.0909 209.913C14.9333 210.695 15.9349 211.285 17.0263 211.641C19.5296 212.156 22.1316 211.836 24.4382 210.735C25.5008 210.306 26.48 209.692 27.3305 208.922C28.3104 208.081 29.3363 207.295 30.4036 206.568C30.946 206.386 30.7651 206.386 31.4882 206.929L32.7537 207.837L35.6461 210.01C36.664 210.579 37.8036 210.892 38.9682 210.923C40.1328 210.954 41.2877 210.704 42.3347 210.192C44.8655 209.286 45.7695 207.293 47.5772 205.48C49.3849 203.669 52.0964 205.662 53.7235 207.293C55.3504 208.922 59.1467 208.561 61.4967 207.111C63.8468 205.662 63.4853 205.48 65.1122 205.842C66.6041 206.183 67.9401 207.011 68.9085 208.199C69.8123 209.286 74.6933 207.473 73.7893 206.386C72.9205 205.387 71.8308 204.604 70.6068 204.101C69.3828 203.598 68.0584 203.387 66.7392 203.487C65.261 203.462 63.7905 203.708 62.4007 204.213C62.0391 204.393 58.0621 206.024 58.2428 206.386L59.3274 206.024L58.9658 205.662L58.2428 204.757L56.7966 203.669C55.5826 202.951 54.2235 202.518 52.8195 202.4C49.8119 202.28 46.8418 203.104 44.3233 204.757C43.2886 205.521 42.3746 206.436 41.6116 207.473L40.1654 209.104C39.9847 208.381 42.154 209.648 41.4309 208.561L40.3462 208.017C38.177 206.568 36.5499 204.575 33.8384 204.213C30.9771 204.132 28.1731 205.026 25.8843 206.75C24.9279 207.748 23.8316 208.603 22.6304 209.286C21.3649 210.01 19.5572 208.922 18.6534 207.837C17.7494 206.75 17.2072 204.937 16.1226 204.031C15.5319 203.596 14.8406 203.317 14.1135 203.222C13.3863 203.127 12.6472 203.218 11.9647 203.487C8.16851 204.393 5.09526 207.837 2.7453 210.553C0.395217 213.272 3.46839 211.641 4.01062 211.461C5.27343 211.482 6.4984 211.029 7.44542 210.192V210.374Z" fill="#FFA500"/>
</svg>
