<svg width="25" height="24" viewBox="0 0 25 24" fill="none" xmlns="http://www.w3.org/2000/svg">
<path d="M10.816 10.75V9.434C10.816 8.504 11.57 7.75 12.5 7.75C13.43 7.75 14.184 8.504 14.184 9.434V10.75" stroke="#563746" stroke-width="2" stroke-linecap="round" stroke-linejoin="round"/>
<path fill-rule="evenodd" clip-rule="evenodd" d="M14.5 15.75H10.5C9.948 15.75 9.5 15.302 9.5 14.75V11.75C9.5 11.198 9.948 10.75 10.5 10.75H14.5C15.052 10.75 15.5 11.198 15.5 11.75V14.75C15.5 15.302 15.052 15.75 14.5 15.75Z" stroke="#563746" stroke-width="2" stroke-linecap="round" stroke-linejoin="round"/>
<path d="M4.33899 4.76501V7.49801H7.07299" stroke="#563746" stroke-width="2" stroke-linecap="round" stroke-linejoin="round"/>
<path d="M20.2941 7.505C18.7371 4.814 15.8341 3 12.5021 3C9.17309 3 6.27309 4.812 4.71509 7.499" stroke="#563746" stroke-width="2" stroke-linecap="round" stroke-linejoin="round"/>
<path d="M21.425 10.874C21.668 12.758 21.324 14.732 20.3 16.505C18.634 19.391 15.611 20.997 12.502 21L12.496 20.995C9.38704 20.992 6.36404 19.386 4.69804 16.5C3.67504 14.729 3.33204 12.756 3.57304 10.874" stroke="#563746" stroke-width="2" stroke-linecap="round" stroke-linejoin="round"/>
</svg>
