<svg width="24" height="24" viewBox="0 0 24 24" fill="none" xmlns="http://www.w3.org/2000/svg">
<path d="M19.875 11.4646V18.75C19.875 19.9926 18.8676 21 17.625 21H6.375C5.13236 21 4.125 19.9926 4.125 18.75V11.4644" stroke="#563746" stroke-width="2" stroke-linecap="round" stroke-linejoin="round"/>
<path d="M15 8.625V9C15 10.6569 13.6569 12 12 12V12C10.3431 12 9 10.6569 9 9V8.625" stroke="#563746" stroke-width="2" stroke-linecap="round" stroke-linejoin="round"/>
<path d="M15 8.625V9C15 10.6569 16.3431 12 18 12H18.2482C19.768 12 21 10.768 21 9.24822V9.24822C21 8.84042 20.8892 8.44029 20.6794 8.09061L18.2804 4.09238C17.8738 3.41467 17.1414 3 16.3511 3H7.64893C6.85859 3 6.1262 3.41467 5.71957 4.09238L3.32064 8.0906C3.11083 8.44028 3 8.84041 3 9.24821V9.24821C3 10.768 4.23201 12 5.75178 12H6C7.65685 12 9 10.6569 9 9V8.625" stroke="#563746" stroke-width="2" stroke-linecap="round" stroke-linejoin="round"/>
<path d="M13.6875 16.8438H10.3125" stroke="#563746" stroke-width="2" stroke-linecap="round" stroke-linejoin="round"/>
</svg>
