<svg width="18" height="18" viewBox="0 0 18 18" fill="none" xmlns="http://www.w3.org/2000/svg">
<path fill-rule="evenodd" clip-rule="evenodd" d="M5.48752 16.3665C5.06492 16.5871 4.55367 16.5482 4.16925 16.2663C3.78483 15.9844 3.5941 15.5085 3.67744 15.0392L4.35195 11.1731L1.5122 8.4517C1.16509 8.12068 1.03787 7.6203 1.18475 7.16369C1.33162 6.70708 1.7267 6.3747 2.20171 6.30813L6.14451 5.74451L7.92457 2.19357C8.13562 1.76771 8.56983 1.49829 9.04513 1.49829C9.52042 1.49829 9.95463 1.76771 10.1657 2.19357L11.9457 5.74451L15.8885 6.30813C16.3635 6.3747 16.7586 6.70708 16.9055 7.16369C17.0524 7.6203 16.9252 8.12068 16.5781 8.4517L13.7383 11.1731L14.4128 15.04C14.4962 15.5094 14.3054 15.9853 13.921 16.2672C13.5366 16.5491 13.0253 16.5879 12.6027 16.3673L9.04513 14.5289L5.48752 16.3665Z" fill="white" stroke="#563746" stroke-width="1.5" stroke-linecap="round" stroke-linejoin="round"/>
</svg>
