<svg width="18" height="18" viewBox="0 0 18 18" fill="none" xmlns="http://www.w3.org/2000/svg">
<path fill-rule="evenodd" clip-rule="evenodd" d="M5.44748 16.3665C5.02488 16.5871 4.51364 16.5482 4.12921 16.2663C3.74479 15.9844 3.55406 15.5085 3.63741 15.0392L4.31191 11.1731L1.47216 8.4517C1.12505 8.12068 0.997836 7.6203 1.14471 7.16369C1.29158 6.70708 1.68666 6.3747 2.16167 6.30813L6.10447 5.74451L7.88453 2.19357C8.09558 1.76771 8.5298 1.49829 9.00509 1.49829C9.48038 1.49829 9.91459 1.76771 10.1256 2.19357L11.9057 5.74451L15.8485 6.30813C16.3235 6.3747 16.7186 6.70708 16.8655 7.16369C17.0123 7.6203 16.8851 8.12068 16.538 8.4517L13.6983 11.1731L14.3728 15.04C14.4561 15.5094 14.2654 15.9853 13.881 16.2672C13.4965 16.5491 12.9853 16.5879 12.5627 16.3673L9.00509 14.5289L5.44748 16.3665Z" fill="#FEBF50" stroke="#563746" stroke-width="1.5" stroke-linecap="round" stroke-linejoin="round"/>
</svg>
