<svg width="44" height="44" viewBox="0 0 44 44" fill="none" xmlns="http://www.w3.org/2000/svg">
<rect x="1" y="1" width="42" height="42" rx="21" fill="#F9F7F3"/>
<path d="M26 20.2924L29.4752 18.1502C29.6267 18.0568 29.8004 18.0055 29.9784 18.0017C30.1563 17.9978 30.3321 18.0416 30.4875 18.1283C30.6429 18.2151 30.7723 18.3417 30.8624 18.4952C30.9525 18.6487 31 18.8235 31 19.0015V25.9983C31 26.1763 30.9525 26.351 30.8624 26.5045C30.7723 26.658 30.6429 26.7847 30.4875 26.8714C30.3321 26.9582 30.1563 27.0019 29.9784 26.9981C29.8005 26.9942 29.6268 26.943 29.4753 26.8496L26 24.7074" stroke="#946985" stroke-width="2" stroke-linecap="round" stroke-linejoin="round"/>
<path d="M23 16H16C14.3431 16 13 17.3431 13 19V26C13 27.6569 14.3431 29 16 29H23C24.6569 29 26 27.6569 26 26V19C26 17.3431 24.6569 16 23 16Z" fill="#BB93AD" stroke="#946985" stroke-width="2" stroke-linecap="round" stroke-linejoin="round"/>
<rect x="1" y="1" width="42" height="42" rx="21" stroke="#946985" stroke-width="2"/>
</svg>
