<svg width="91" height="38" viewBox="0 0 91 38" fill="none" xmlns="http://www.w3.org/2000/svg">
<path d="M43.9785 13.42C44.7518 13.42 45.3185 13.5667 45.6785 13.86C46.0385 14.1533 46.2185 14.5533 46.2185 15.06C46.2185 15.3667 46.1718 15.66 46.0785 15.94L44.2385 21.92C44.1985 22.08 44.1785 22.22 44.1785 22.34C44.1785 22.5133 44.2118 22.6533 44.2785 22.76C44.3452 22.8533 44.4385 22.9467 44.5585 23.04C44.6518 23.1333 44.7185 23.2133 44.7585 23.28C44.7985 23.3333 44.8052 23.4067 44.7785 23.5C44.7118 23.6733 44.5785 23.8 44.3785 23.88C44.1785 23.96 43.8718 24 43.4585 24H38.8985C38.5518 24 38.2985 23.9467 38.1385 23.84C37.9785 23.72 37.9252 23.5667 37.9785 23.38C38.0318 23.22 38.1718 23.08 38.3985 22.96C38.5985 22.8533 38.7652 22.7267 38.8985 22.58C39.0318 22.4333 39.1452 22.2 39.2385 21.88L40.9785 16.1C41.0185 15.98 41.0385 15.88 41.0385 15.8C41.0385 15.6533 41.0052 15.54 40.9385 15.46C40.8718 15.3667 40.7718 15.2733 40.6385 15.18C40.5052 15.0733 40.4118 14.98 40.3585 14.9C40.3052 14.82 40.2985 14.7133 40.3385 14.58C40.4185 14.2733 40.8385 14.0067 41.5985 13.78C42.3585 13.54 43.1518 13.42 43.9785 13.42ZM45.3185 9C45.8385 9 46.2718 9.17333 46.6185 9.52C46.9652 9.85333 47.1385 10.2667 47.1385 10.76C47.1385 11.1067 47.0452 11.4467 46.8585 11.78C46.6852 12.1133 46.4318 12.3867 46.0985 12.6C45.7785 12.8 45.4185 12.9 45.0185 12.9C44.5118 12.9 44.0852 12.7333 43.7385 12.4C43.4052 12.0533 43.2318 11.6267 43.2185 11.12C43.2185 10.7867 43.3052 10.46 43.4785 10.14C43.6518 9.80667 43.8985 9.53333 44.2185 9.32C44.5385 9.10667 44.9052 9 45.3185 9ZM54.9827 13.68C55.2361 13.68 55.4294 13.7333 55.5627 13.84C55.7094 13.9467 55.7827 14.0933 55.7827 14.28C55.7827 14.3333 55.7694 14.4267 55.7427 14.56C55.5694 15.1467 55.1694 15.44 54.5427 15.44H53.3827L51.8827 20.38C51.8161 20.58 51.7827 20.7867 51.7827 21C51.7827 21.24 51.8494 21.4067 51.9827 21.5C52.1161 21.5933 52.3027 21.64 52.5427 21.64C52.7561 21.64 53.0227 21.6133 53.3427 21.56C53.5027 21.52 53.6427 21.5 53.7627 21.5C53.8561 21.5 53.9227 21.5333 53.9627 21.6C54.0161 21.6533 54.0427 21.7267 54.0427 21.82C54.0561 22.0867 53.8561 22.4133 53.4427 22.8C53.0427 23.1733 52.4961 23.5 51.8027 23.78C51.1094 24.0467 50.3427 24.18 49.5027 24.18C48.5961 24.18 47.8694 23.9733 47.3227 23.56C46.7761 23.1467 46.5027 22.58 46.5027 21.86C46.5027 21.5267 46.5561 21.2067 46.6627 20.9L47.9427 16.94C48.0094 16.7133 48.0427 16.5333 48.0427 16.4C48.0427 16.1333 47.9761 15.9067 47.8427 15.72C47.7227 15.5333 47.5494 15.34 47.3227 15.14C47.1227 14.9533 46.9827 14.8 46.9027 14.68C46.8227 14.5467 46.8027 14.3933 46.8427 14.22C46.8961 14.0467 47.0094 13.9133 47.1827 13.82C47.3561 13.7267 47.6294 13.68 48.0027 13.68H49.1227L50.3827 12.42C50.8227 11.98 51.2227 11.6733 51.5827 11.5C51.9561 11.3267 52.4361 11.24 53.0227 11.24C53.8627 11.24 54.2827 11.56 54.2827 12.2C54.2827 12.4 54.2561 12.5867 54.2027 12.76L53.9227 13.68H54.9827ZM71.6565 12.6C71.6565 13.08 71.5498 13.4933 71.3365 13.84C71.1365 14.1867 70.8765 14.4533 70.5565 14.64C70.2365 14.8133 69.9165 14.9 69.5965 14.9C69.2765 14.9 68.9831 14.8333 68.7165 14.7C68.4631 14.5667 68.2498 14.3867 68.0765 14.16L63.2565 22.28C62.8965 22.8933 62.5631 23.3333 62.2565 23.6C61.9498 23.8667 61.6031 24 61.2165 24C60.8031 24 60.4698 23.8667 60.2165 23.6C59.9765 23.32 59.8031 22.88 59.6965 22.28L58.0165 13.04C57.9765 12.8 57.9031 12.6067 57.7965 12.46C57.6898 12.3133 57.5498 12.1533 57.3765 11.98C57.2431 11.86 57.1498 11.7667 57.0965 11.7C57.0431 11.62 57.0165 11.5267 57.0165 11.42C56.9498 10.9267 57.2431 10.68 57.8965 10.68H62.8965C63.2031 10.68 63.4365 10.7467 63.5965 10.88C63.7565 11 63.8298 11.1667 63.8165 11.38C63.8165 11.5 63.7898 11.6 63.7365 11.68C63.6965 11.76 63.6231 11.86 63.5165 11.98C63.3965 12.1133 63.3031 12.24 63.2365 12.36C63.1698 12.48 63.1365 12.6267 63.1365 12.8C63.1365 12.88 63.1431 12.9467 63.1565 13L63.9165 17.66L66.5765 12.94C67.0431 12.0867 67.5031 11.4867 67.9565 11.14C68.4098 10.78 68.9698 10.6 69.6365 10.6C70.2498 10.6 70.7365 10.78 71.0965 11.14C71.4698 11.4867 71.6565 11.9733 71.6565 12.6ZM76.0844 13.32C77.7778 13.32 79.0044 13.5933 79.7644 14.14C80.5244 14.6733 80.9044 15.36 80.9044 16.2C80.9044 16.4533 80.8778 16.6867 80.8244 16.9C80.6244 17.78 80.0644 18.4133 79.1444 18.8C78.2378 19.1733 77.1644 19.36 75.9244 19.36C75.2978 19.36 74.7111 19.32 74.1644 19.24C74.1511 19.9333 74.3378 20.42 74.7244 20.7C75.1111 20.98 75.6511 21.12 76.3444 21.12C76.6644 21.12 76.9711 21.0867 77.2644 21.02C77.5578 20.94 77.9311 20.8267 78.3844 20.68C78.7578 20.5467 79.0111 20.48 79.1444 20.48C79.2911 20.48 79.3644 20.5667 79.3644 20.74C79.3778 21.2067 79.2044 21.7 78.8444 22.22C78.4844 22.7267 77.9511 23.16 77.2444 23.52C76.5378 23.88 75.6844 24.06 74.6844 24.06C73.2044 24.06 71.9911 23.6867 71.0444 22.94C70.0978 22.1933 69.6244 21.1067 69.6244 19.68C69.6244 19.28 69.6778 18.8133 69.7844 18.28C70.1178 16.64 70.8444 15.4067 71.9644 14.58C73.0978 13.74 74.4711 13.32 76.0844 13.32ZM74.3044 18.04C74.3578 18.0533 74.4311 18.06 74.5244 18.06C75.0844 18.06 75.5111 17.8 75.8044 17.28C76.0978 16.76 76.2378 16.18 76.2244 15.54C76.2111 15.1667 76.1044 14.98 75.9044 14.98C75.7578 14.98 75.5844 15.1 75.3844 15.34C75.1844 15.5667 74.9844 15.9133 74.7844 16.38C74.5978 16.8467 74.4378 17.4 74.3044 18.04ZM89.4359 13.68C89.6892 13.68 89.8825 13.7333 90.0158 13.84C90.1625 13.9467 90.2358 14.0933 90.2358 14.28C90.2358 14.3333 90.2225 14.4267 90.1958 14.56C90.0225 15.1467 89.6225 15.44 88.9958 15.44H87.8358L86.3359 20.38C86.2692 20.58 86.2358 20.7867 86.2358 21C86.2358 21.24 86.3025 21.4067 86.4359 21.5C86.5692 21.5933 86.7558 21.64 86.9958 21.64C87.2092 21.64 87.4758 21.6133 87.7958 21.56C87.9558 21.52 88.0958 21.5 88.2158 21.5C88.3092 21.5 88.3758 21.5333 88.4159 21.6C88.4692 21.6533 88.4958 21.7267 88.4958 21.82C88.5092 22.0867 88.3092 22.4133 87.8958 22.8C87.4958 23.1733 86.9492 23.5 86.2558 23.78C85.5625 24.0467 84.7958 24.18 83.9558 24.18C83.0492 24.18 82.3225 23.9733 81.7758 23.56C81.2292 23.1467 80.9558 22.58 80.9558 21.86C80.9558 21.5267 81.0092 21.2067 81.1158 20.9L82.3958 16.94C82.4625 16.7133 82.4958 16.5333 82.4958 16.4C82.4958 16.1333 82.4292 15.9067 82.2958 15.72C82.1758 15.5333 82.0025 15.34 81.7758 15.14C81.5758 14.9533 81.4358 14.8 81.3558 14.68C81.2758 14.5467 81.2558 14.3933 81.2958 14.22C81.3492 14.0467 81.4625 13.9133 81.6358 13.82C81.8092 13.7267 82.0825 13.68 82.4558 13.68H83.5758L84.8358 12.42C85.2758 11.98 85.6758 11.6733 86.0358 11.5C86.4092 11.3267 86.8892 11.24 87.4758 11.24C88.3159 11.24 88.7359 11.56 88.7359 12.2C88.7359 12.4 88.7092 12.5867 88.6559 12.76L88.3759 13.68H89.4359Z" fill="#563746"/>
<path d="M23.3747 0.106729C23.0988 0.00250187 22.8045 -0.028153 22.5164 0.0270263C21.8174 0.16804 20.5422 0.725975 20.0823 2.8841C19.4386 5.91283 20.6648 7.5866 21.8113 8.00351C22.9517 8.42042 24.3863 7.49463 24.8768 6.01705C25.3489 4.59465 26.0908 1.14289 23.3747 0.106729Z" fill="url(#paint0_linear_4442_1215)"/>
<path d="M11.4676 0.406082C11.1794 0.448999 10.9035 0.57162 10.6828 0.761657C10.1433 1.22762 9.30948 2.34346 9.97163 4.4464C10.9035 7.40156 12.7919 8.24764 13.9936 8.05145C15.1953 7.85525 15.98 6.34089 15.6796 4.81427C15.3976 3.34895 14.3369 -0.0292206 11.4676 0.406082Z" fill="url(#paint1_linear_4442_1215)"/>
<path d="M2.86392 6.87603C2.63094 7.05383 2.45314 7.29294 2.34891 7.56883C2.10367 8.23711 1.91361 9.61659 3.5138 11.1371C5.76389 13.2707 7.83005 13.0929 8.78036 12.3388C9.73067 11.5847 9.68775 9.88023 8.68226 8.69081C7.72582 7.54431 5.16918 5.11029 2.86392 6.87603Z" fill="url(#paint2_linear_4442_1215)"/>
<path d="M0.0701699 19.3425C0.0149907 19.6306 0.0333836 19.9249 0.143742 20.2008C0.407376 20.863 1.17376 22.0217 3.37479 22.1014C6.47096 22.2118 7.90562 20.7097 8.12021 19.5141C8.33479 18.3186 7.17603 17.0678 5.63101 16.841C4.15343 16.6203 0.621962 16.4915 0.0701699 19.3425Z" fill="url(#paint3_linear_4442_1215)"/>
<path fill-rule="evenodd" clip-rule="evenodd" d="M26.0356 16.247C26.0356 17.6995 25.6558 19.0633 24.9902 20.2445C24.2503 15.4492 22.2664 12.0166 19.9352 12.0166C17.2491 12.0166 15.024 16.5743 14.6319 22.5225V31.9056L29.1784 26.1266C29.5061 25.964 29.8754 25.8728 30.266 25.8728C31.6205 25.8728 32.7184 26.9707 32.7184 28.3252C32.7184 29.3273 32.1173 30.1891 31.256 30.5695L31.2591 30.5776L13.8605 37.4898C13.7925 37.5169 13.7239 37.5395 13.6549 37.558C12.6519 38.1428 11.4691 38.166 10.6264 37.5134C9.90308 36.9532 9.59917 36.0259 9.72706 35.0677V16.6149C9.72706 16.5699 9.72822 16.5251 9.73037 16.4807C9.72822 16.4031 9.72706 16.3251 9.72706 16.247C9.72706 11.7436 13.3778 8.09277 17.8813 8.09277C22.3848 8.09277 26.0356 11.7436 26.0356 16.247Z" fill="#45283C"/>
<defs>
<linearGradient id="paint0_linear_4442_1215" x1="22.6219" y1="6.2357e-07" x2="22.6219" y2="8.10375" gradientUnits="userSpaceOnUse">
<stop stop-color="#45283C"/>
<stop offset="1" stop-color="#8C607D"/>
</linearGradient>
<linearGradient id="paint1_linear_4442_1215" x1="12.7355" y1="0.367678" x2="12.7355" y2="8.07836" gradientUnits="userSpaceOnUse">
<stop stop-color="#45283C"/>
<stop offset="1" stop-color="#8C607D"/>
</linearGradient>
<linearGradient id="paint2_linear_4442_1215" x1="5.82581" y1="6.25342" x2="5.82581" y2="12.8562" gradientUnits="userSpaceOnUse">
<stop stop-color="#45283C"/>
<stop offset="1" stop-color="#8C607D"/>
</linearGradient>
<linearGradient id="paint3_linear_4442_1215" x1="4.09298" y1="16.7378" x2="4.09298" y2="22.1072" gradientUnits="userSpaceOnUse">
<stop stop-color="#45283C"/>
<stop offset="1" stop-color="#8C607D"/>
</linearGradient>
</defs>
</svg>
