<svg width="24" height="25" viewBox="0 0 24 25" fill="none" xmlns="http://www.w3.org/2000/svg">
<path d="M12 21.4102H3" stroke="#563746" stroke-width="2" stroke-linecap="round" stroke-linejoin="round"/>
<path d="M4.22 11.2803V21.4103" stroke="#563746" stroke-width="2" stroke-linecap="round" stroke-linejoin="round"/>
<path fill-rule="evenodd" clip-rule="evenodd" d="M19.699 11.278C21.397 11.266 22.504 9.585 21.768 8.136L20.052 4.759C19.662 3.989 18.84 3.5 17.938 3.5H6.06201C5.16001 3.5 4.33801 3.989 3.94701 4.759L2.23101 8.136C1.49501 9.585 2.60201 11.266 4.30001 11.278C5.71701 11.278 6.86601 10.31 6.86601 9.115V9.067C6.86601 10.288 8.01501 11.278 9.43201 11.278C10.851 11.278 12 10.288 12 9.067C12 10.288 13.149 11.278 14.566 11.278C15.983 11.278 17.132 10.288 17.132 9.067V9.115C17.133 10.31 18.282 11.278 19.699 11.278V11.278Z" stroke="#563746" stroke-width="2" stroke-linecap="round" stroke-linejoin="round"/>
<path d="M20 13.5003L20.02 11.2803" stroke="#563746" stroke-width="2" stroke-linecap="round" stroke-linejoin="round"/>
<path d="M16.7143 21.0713V15.0713" stroke="#563746" stroke-width="2" stroke-linecap="round" stroke-linejoin="round"/>
<path d="M13.7143 18.0711H19.7143" stroke="#563746" stroke-width="2" stroke-linecap="round" stroke-linejoin="round"/>
</svg>
