<svg width="24" height="25" viewBox="0 0 24 25" fill="none" xmlns="http://www.w3.org/2000/svg">
<path fill-rule="evenodd" clip-rule="evenodd" d="M2.99622 12.4615C2.9971 11.7982 3.14973 11.1439 3.4424 10.5487C5.09849 7.36608 8.41286 5.39466 12 5.45854C15.5871 5.39466 18.9014 7.36608 20.5575 10.5487C21.1524 11.7545 21.1524 13.1684 20.5575 14.3743C18.9014 17.5568 15.5871 19.5282 12 19.4644C8.41286 19.5282 5.09849 17.5568 3.4424 14.3743C3.14973 13.779 2.9971 13.1247 2.99622 12.4615Z" stroke="#563746" stroke-width="2" stroke-linecap="round" stroke-linejoin="round"/>
<path d="M15.0013 12.4612C15.0013 14.1188 13.6576 15.4625 12 15.4625C10.3425 15.4625 8.99878 14.1188 8.99878 12.4612C8.99878 10.8037 10.3425 9.45996 12 9.45996" stroke="#563746" stroke-width="2" stroke-linecap="round" stroke-linejoin="round"/>
</svg>
