<svg width="24" height="25" viewBox="0 0 24 25" fill="none" xmlns="http://www.w3.org/2000/svg">
<path d="M14.5582 14.0187C13.9186 15.097 12.6764 15.6645 11.4426 15.442C10.2087 15.2195 9.24301 14.2538 9.02048 13.0199C8.79795 11.7861 9.36544 10.5438 10.4438 9.9043" stroke="#563746" stroke-width="2" stroke-linecap="round" stroke-linejoin="round"/>
<path d="M17.9965 17.4575C16.2717 18.7657 14.1648 19.4708 12 19.4642C8.41285 19.5281 5.0985 17.5567 3.44239 14.3741C2.84749 13.1683 2.84749 11.7543 3.44239 10.5485C4.27064 8.89915 5.59094 7.54789 7.22068 6.68164" stroke="#563746" stroke-width="2" stroke-linecap="round" stroke-linejoin="round"/>
<path d="M20.4272 14.596C20.4674 14.5199 20.5196 14.4517 20.5576 14.3742C21.1524 13.1684 21.1524 11.7545 20.5576 10.5486C18.9015 7.36607 15.5871 5.39466 12 5.45854C11.7751 5.45854 11.5565 5.48855 11.3345 5.50318" stroke="#563746" stroke-width="2" stroke-linecap="round" stroke-linejoin="round"/>
<path d="M21.0038 20.4641L3.9967 3.45703" stroke="#563746" stroke-width="2" stroke-linecap="round" stroke-linejoin="round"/>
</svg>
